<svg width="69" height="66" viewBox="0 0 69 66" fill="none" xmlns="http://www.w3.org/2000/svg">
<g clip-path="url(#clip0_348_2654)">
<path d="M67.7418 64.2322H63.6899L59.8395 42.2116C59.8037 42.0068 59.6969 41.8211 59.5378 41.6873C59.3787 41.5534 59.1776 41.4799 58.9697 41.4797H53.4415V38.1508H57.6473C59.6923 38.1456 61.6519 37.3302 63.0969 35.8832C64.542 34.4362 65.3546 32.4755 65.357 30.4305C65.3582 29.5295 65.2002 28.6353 64.8903 27.7893C66.3045 26.3574 67.1031 24.4296 67.1157 22.4171C67.1282 20.4046 66.3537 18.467 64.9574 17.0176C65.4192 15.6394 65.4826 14.1589 65.1405 12.7462C64.7984 11.3336 64.0647 10.0461 63.0236 9.03182C61.9826 8.01752 60.6764 7.31757 59.2553 7.0124C57.8342 6.70723 56.3559 6.80923 54.9902 7.30669C53.9566 6.4559 52.7201 5.88761 51.4014 5.65726C50.9908 4.17821 50.1488 2.85507 48.9828 1.85679C47.8167 0.858504 46.3797 0.230376 44.855 0.0526007C43.3304 -0.125174 41.7873 0.155471 40.4229 0.858705C39.0585 1.56194 37.9346 2.65585 37.1948 4.00077C35.4397 3.38763 33.5226 3.42654 31.7939 4.11037C31.1327 2.87402 30.1497 1.83935 28.9488 1.11582C27.7479 0.392277 26.3737 0.00676854 24.9717 6.94583e-05C23.2378 -0.00729974 21.5524 0.571906 20.1893 1.64356C18.8262 2.71522 17.8656 4.21634 17.4635 5.903C16.7933 5.73689 16.1051 5.65435 15.4146 5.65726C13.4489 5.64649 11.5434 6.33491 10.0384 7.59954C8.53352 8.86416 7.52721 10.6226 7.19927 12.5608C5.75137 12.9076 4.45916 13.7243 3.52463 14.8833C2.5901 16.0423 2.06591 17.4783 2.03399 18.9668C2.00208 20.4553 2.46424 21.9124 3.34823 23.1104C4.23223 24.3084 5.48824 25.1798 6.91994 25.5883C7.07897 27.5055 7.94683 29.2947 9.35408 30.6065C10.7613 31.9183 12.6069 32.6585 14.5306 32.6827V37.5674H9.9872C9.77559 37.5676 9.57107 37.6437 9.41081 37.7819C9.25055 37.9201 9.14519 38.1112 9.11387 38.3205L5.24577 64.2322H0.884425C0.64999 64.2322 0.425158 64.3253 0.259387 64.4911C0.093617 64.6569 0.000488281 64.8817 0.000488281 65.1161C0.000488281 65.3506 0.093617 65.5754 0.259387 65.7412C0.425158 65.9069 0.64999 66.0001 0.884425 66.0001H67.7418C67.9763 66.0001 68.2011 65.9069 68.3669 65.7412C68.5327 65.5754 68.6258 65.3506 68.6258 65.1161C68.6258 64.8817 68.5327 64.6569 68.3669 64.4911C68.2011 64.3253 67.9763 64.2322 67.7418 64.2322ZM15.4128 30.9149H14.6173C13.0387 30.913 11.5253 30.2851 10.4091 29.1689C9.29285 28.0526 8.66494 26.5392 8.66306 24.9607V24.8776C8.66304 24.6686 8.58897 24.4664 8.45402 24.3068C8.31906 24.1473 8.13194 24.0407 7.92586 24.006C6.75539 23.806 5.69532 23.1933 4.93784 22.2788C4.18036 21.3644 3.77562 20.2088 3.797 19.0216C3.81838 17.8343 4.26447 16.6941 5.05438 15.8075C5.84429 14.9209 6.92574 14.3467 8.10265 14.189C8.30186 14.1629 8.48623 14.0697 8.62538 13.9248C8.76453 13.7798 8.85015 13.5918 8.86814 13.3917C8.96154 12.3745 9.29068 11.393 9.82948 10.5251C10.3683 9.6572 11.1019 8.9268 11.9721 8.39183C12.8424 7.85685 13.8253 7.53201 14.8429 7.44308C15.8606 7.35414 16.8849 7.50356 17.8348 7.87948C17.9621 7.92966 18.0994 7.94959 18.2357 7.9377C18.3721 7.9258 18.5038 7.88241 18.6205 7.81094C18.7372 7.73947 18.8357 7.64187 18.9083 7.52584C18.9809 7.4098 19.0255 7.2785 19.0387 7.14228C19.1686 5.80567 19.7466 4.55223 20.6787 3.5855C21.6108 2.61877 22.8423 1.99553 24.1733 1.81697C25.5043 1.63841 26.8565 1.91504 28.0105 2.60191C29.1644 3.28879 30.0523 4.34559 30.5299 5.60069C30.5749 5.71876 30.6447 5.8258 30.7346 5.9146C30.8246 6.0034 30.9325 6.07188 31.0511 6.11545C31.1697 6.15901 31.2963 6.17663 31.4223 6.16712C31.5483 6.15762 31.6708 6.1212 31.7815 6.06034C32.6568 5.58301 33.6379 5.33317 34.6349 5.33374C35.5374 5.33139 36.4283 5.53644 37.239 5.93305C37.3473 5.98658 37.4655 6.01731 37.5862 6.02337C37.7069 6.02942 37.8275 6.01066 37.9407 5.96825C38.0539 5.92583 38.1571 5.86066 38.2441 5.77677C38.3311 5.69287 38.3999 5.59203 38.4464 5.48048C38.9316 4.29062 39.7888 3.28966 40.8898 2.62712C41.9908 1.96458 43.2766 1.676 44.5552 1.80449C45.8337 1.93298 47.0364 2.47165 47.9836 3.34003C48.9307 4.20841 49.5715 5.35991 49.8103 6.62252C49.8459 6.81222 49.9425 6.98507 50.0855 7.11467C50.2285 7.24427 50.41 7.32351 50.6023 7.34028C51.9535 7.46014 53.2233 8.03767 54.2017 8.97733C54.3294 9.09961 54.4907 9.1808 54.665 9.21043C54.8393 9.24005 55.0184 9.21674 55.1793 9.14351C56.2716 8.6491 57.4876 8.49593 58.6683 8.70405C59.8491 8.91218 60.9394 9.47189 61.7968 10.31C62.6542 11.148 63.2386 12.2254 63.4735 13.4011C63.7084 14.5767 63.583 15.796 63.1135 16.8992C63.0402 17.0703 63.0228 17.2601 63.0638 17.4417C63.1047 17.6233 63.202 17.7873 63.3416 17.9104C64.4896 18.9242 65.2021 20.342 65.3306 21.8682C65.459 23.3944 64.9935 24.9113 64.0311 26.1027C63.3237 25.0568 62.3704 24.2003 61.2549 23.6085C60.1395 23.0168 58.8959 22.7077 57.6331 22.7084C57.3987 22.7084 57.1739 22.8015 57.0081 22.9673C56.8423 23.1331 56.7492 23.3579 56.7492 23.5923C56.7492 23.8268 56.8423 24.0516 57.0081 24.2174C57.1739 24.3831 57.3987 24.4763 57.6331 24.4763C58.4236 24.4627 59.2088 24.6066 59.943 24.8996C60.6773 25.1927 61.3458 25.629 61.9096 26.1832C62.4734 26.7374 62.9212 27.3983 63.2268 28.1273C63.5325 28.8564 63.6899 29.639 63.6899 30.4296C63.6899 31.2201 63.5325 32.0028 63.2268 32.7318C62.9212 33.4609 62.4734 34.1218 61.9096 34.676C61.3458 35.2301 60.6773 35.6665 59.943 35.9595C59.2088 36.2526 58.4236 36.3965 57.6331 36.3829H52.5576C52.3231 36.3829 52.0983 36.476 51.9325 36.6418C51.7668 36.8076 51.6736 37.0324 51.6736 37.2668V41.4797H44.8461V37.2739C44.8461 37.0395 44.753 36.8146 44.5872 36.6489C44.4215 36.4831 44.1966 36.39 43.9622 36.39H39.2614C38.3307 36.3895 37.4106 36.1912 36.5624 35.8081C35.7141 35.4249 34.9571 34.8658 34.3414 34.1678C36.1391 33.861 37.7706 32.9288 38.9477 31.5359C40.1248 30.143 40.7719 28.379 40.7747 26.5553C40.7747 26.3209 40.6816 26.096 40.5158 25.9303C40.35 25.7645 40.1252 25.6714 39.8908 25.6714C39.6563 25.6714 39.4315 25.7645 39.2657 25.9303C39.1 26.096 39.0068 26.3209 39.0068 26.5553C39.005 28.1326 38.378 29.645 37.2633 30.761C36.1486 31.877 34.6371 32.5057 33.0597 32.5095H24.9717C24.7373 32.5095 24.5124 32.6026 24.3467 32.7684C24.1809 32.9342 24.0878 33.159 24.0878 33.3934V37.5674H16.2985V31.7988C16.2985 31.5644 16.2054 31.3395 16.0396 31.1738C15.8738 31.008 15.649 30.9149 15.4146 30.9149H15.4128ZM37.688 41.4797C37.4798 41.4795 37.2782 41.5528 37.1188 41.6867C36.9593 41.8206 36.8523 42.0065 36.8164 42.2116L34.6172 54.7935L32.1581 38.3205C32.1265 38.1094 32.0196 37.9168 31.8571 37.7784C31.6947 37.64 31.4876 37.565 31.2742 37.5674H25.8556V34.2774H32.22C32.9708 35.4673 34.0105 36.448 35.2423 37.128C36.4741 37.8081 37.8579 38.1654 39.2649 38.1667H43.0818V41.4885L37.688 41.4797ZM10.7492 39.3352H30.514L34.2265 64.2092H7.03662L10.7492 39.3352ZM36.0191 64.2322L35.4357 60.3199C35.4357 60.3075 35.4357 60.2969 35.4446 60.2845L38.4234 43.2475H58.2236L61.8937 64.2322H36.0191Z" fill="white"/>
<path d="M15.2531 10.0168C14.4869 10.0178 13.7523 10.3223 13.2102 10.8637C12.6681 11.4052 12.3627 12.1394 12.3608 12.9056C12.3608 12.9759 12.3888 13.0433 12.4385 13.0931C12.4882 13.1428 12.5557 13.1707 12.626 13.1707C12.6964 13.1707 12.7638 13.1428 12.8135 13.0931C12.8633 13.0433 12.8912 12.9759 12.8912 12.9056C12.8926 12.2799 13.142 11.6803 13.5847 11.2383C14.0275 10.7962 14.6274 10.5477 15.2531 10.5472C15.3234 10.5472 15.3909 10.5193 15.4406 10.4695C15.4903 10.4198 15.5183 10.3524 15.5183 10.282C15.5183 10.2117 15.4903 10.1442 15.4406 10.0945C15.3909 10.0448 15.3234 10.0168 15.2531 10.0168Z" fill="white"/>
<path d="M45.1783 4.41989C45.8039 4.42082 46.4037 4.66978 46.8461 5.11218C47.2885 5.55459 47.5374 6.15435 47.5384 6.78C47.5384 6.85033 47.5663 6.91778 47.616 6.96751C47.6658 7.01724 47.7332 7.04518 47.8036 7.04518C47.8739 7.04518 47.9413 7.01724 47.9911 6.96751C48.0408 6.91778 48.0687 6.85033 48.0687 6.78C48.0673 6.01383 47.7624 5.27944 47.2206 4.73767C46.6788 4.19591 45.9444 3.89093 45.1783 3.88953C45.1079 3.88953 45.0405 3.91747 44.9908 3.9672C44.941 4.01693 44.9131 4.08438 44.9131 4.15471C44.9131 4.22504 44.941 4.29249 44.9908 4.34222C45.0405 4.39195 45.1079 4.41989 45.1783 4.41989Z" fill="white"/>
<path d="M31.672 20.9422C32.3968 20.9422 32.9496 20.7354 33.3302 20.3217C33.7109 19.908 33.9019 19.3252 33.903 18.5733V17.2103H32.4711V18.6829C32.4711 19.2722 32.2182 19.5668 31.7126 19.5668C31.207 19.5668 30.956 19.2734 30.956 18.6829V13.298C30.956 12.7022 31.207 12.4034 31.7126 12.4034C32.2182 12.4034 32.4711 12.7022 32.4711 13.298V14.4135H33.903V13.3952C33.903 12.6421 33.7121 12.0593 33.3302 11.6468C32.9484 11.2343 32.3956 11.0274 31.672 11.0262C30.9448 11.0262 30.3914 11.2331 30.0119 11.6468C29.6324 12.0605 29.4421 12.6433 29.4409 13.3952V18.5733C29.4409 19.3264 29.6313 19.9092 30.0119 20.3217C30.3926 20.7342 30.946 20.9411 31.672 20.9422Z" fill="white"/>
<path d="M37.0002 20.9422C37.7451 20.9422 38.3143 20.7307 38.708 20.3076C39.1016 19.8845 39.299 19.2881 39.3002 18.5185V13.45C39.3002 12.6792 39.1028 12.0823 38.708 11.6591C38.3131 11.236 37.7439 11.0251 37.0002 11.0263C36.2577 11.0263 35.6884 11.2372 35.2924 11.6591C34.8964 12.0811 34.699 12.678 34.7002 13.45V18.5185C34.7002 19.2893 34.8976 19.8857 35.2924 20.3076C35.6873 20.7295 36.2565 20.9411 37.0002 20.9422ZM36.2153 13.3528C36.2153 12.7199 36.4769 12.4034 37.0002 12.4034C37.5235 12.4034 37.7851 12.7199 37.7851 13.3528V18.614C37.7851 19.248 37.5235 19.5651 37.0002 19.5651C36.4769 19.5651 36.2153 19.248 36.2153 18.614V13.3528Z" fill="white"/>
<path d="M42.1641 21.8369H40.7498V21.7344C40.7486 21.5705 40.7881 21.409 40.8647 21.2641C40.989 21.055 41.1392 20.8626 41.312 20.6913C41.5918 20.4102 41.8299 20.0905 42.0191 19.742C42.154 19.48 42.2249 19.1898 42.226 18.8952C42.2472 18.575 42.1454 18.2588 41.9413 18.0112C41.7117 17.8128 41.4183 17.7036 41.1149 17.7036C40.8114 17.7036 40.518 17.8128 40.2884 18.0112C40.0843 18.2588 39.9825 18.575 40.0037 18.8952V19.3566H40.7109V18.8474C40.7109 18.5363 40.8382 18.3807 41.0963 18.3807C41.1502 18.3772 41.2042 18.386 41.2541 18.4065C41.3041 18.427 41.3487 18.4587 41.3845 18.4992C41.4628 18.626 41.4976 18.775 41.4835 18.9235C41.4827 19.1501 41.4276 19.3732 41.3226 19.574C41.166 19.8485 40.974 20.1011 40.7516 20.3254C40.514 20.5588 40.3168 20.83 40.1682 21.128C40.0534 21.4039 39.998 21.7009 40.0055 21.9996V22.514H42.1641V21.8369Z" fill="white"/>
</g>
<defs>
<clipPath id="clip0_348_2654">
<rect width="68.6253" height="66" fill="white"/>
</clipPath>
</defs>
</svg>
