<svg width="64" height="64" viewBox="0 0 64 64" fill="none" xmlns="http://www.w3.org/2000/svg">
<path d="M22.1441 39.5388C22.028 39.6376 21.8927 39.7111 21.7467 39.755C21.6007 39.7988 21.4472 39.8118 21.2959 39.7933C21.1434 39.7797 20.9954 39.7351 20.8608 39.6621C20.7263 39.5892 20.6081 39.4895 20.5136 39.3692C20.08 38.8413 16.2722 34.1005 16.2722 30.6791C16.2984 30.3885 16.4324 30.1181 16.6478 29.9213C16.8632 29.7244 17.1444 29.6152 17.4362 29.6152C17.728 29.6152 18.0093 29.7244 18.2247 29.9213C18.4401 30.1181 18.5741 30.3885 18.6002 30.6791C18.6002 32.649 20.8717 36.1457 22.3232 37.9082C22.5134 38.1491 22.6013 38.4551 22.5678 38.7602C22.5343 39.0653 22.3821 39.345 22.1441 39.5388Z" fill="black"/>
<path d="M47.7522 30.6885C47.7522 34.1004 43.9821 38.8413 43.5203 39.3691C43.4238 39.4873 43.3049 39.5854 43.1704 39.6576C43.036 39.7299 42.8887 39.775 42.7368 39.7903C42.4302 39.8212 42.1237 39.729 41.885 39.5341C41.6463 39.3391 41.4948 39.0573 41.4639 38.7506C41.4329 38.4439 41.5251 38.1375 41.7201 37.8988C43.1527 36.1457 45.4336 32.6301 45.4336 30.6791C45.4361 30.3724 45.559 30.0789 45.7759 29.862C45.9928 29.6452 46.2862 29.5222 46.5929 29.5198C46.9012 29.5223 47.1961 29.6465 47.4132 29.8654C47.6304 30.0843 47.7522 30.3802 47.7522 30.6885Z" fill="black"/>
<path d="M33.1809 30.6791V38.634C33.1809 38.9414 33.0588 39.2363 32.8414 39.4537C32.6239 39.6711 32.3291 39.7933 32.0216 39.7933C31.7141 39.7933 31.4193 39.6711 31.2019 39.4537C30.9844 39.2363 30.8623 38.9414 30.8623 38.634V30.6791C30.8623 30.3716 30.9844 30.0767 31.2019 29.8593C31.4193 29.6419 31.7141 29.5198 32.0216 29.5198C32.3291 29.5198 32.6239 29.6419 32.8414 29.8593C33.0588 30.0767 33.1809 30.3716 33.1809 30.6791Z" fill="black"/>
<path d="M59.4396 16.2208C58.2458 13.843 56.4134 11.8445 54.1477 10.4495C51.882 9.05447 49.2726 8.31795 46.6119 8.32248C45.779 8.33006 44.9488 8.41845 44.1331 8.58639H44.0388L43.9728 8.51099C42.5005 6.78326 40.6706 5.39573 38.6097 4.44424C36.5487 3.49276 34.3058 3 32.0358 3C29.7658 3 27.5229 3.49276 25.4619 4.44424C23.401 5.39573 21.5711 6.78326 20.0988 8.51099L19.9857 8.60524H19.8914C19.0724 8.43728 18.2391 8.3489 17.4031 8.34133C14.1626 8.33854 11.0159 9.4287 8.47163 11.4356C5.92736 13.4425 4.13426 16.2487 3.38222 19.4008C2.63018 22.5528 2.96315 25.8663 4.3273 28.8057C5.69145 31.7451 8.00705 34.1385 10.8998 35.5991L10.9846 35.6462V35.7499V55.769C10.992 57.1541 11.5455 58.4803 12.5249 59.4597C13.5043 60.4391 14.8305 60.9926 16.2156 61H47.8089C49.2005 60.9975 50.5343 60.4436 51.5183 59.4596C52.5023 58.4756 53.0562 57.1417 53.0587 55.7502V35.5991H53.153C56.5553 33.8619 59.1286 30.8449 60.3074 27.2112C61.4863 23.5775 61.1741 19.6245 59.4396 16.2208ZM50.7307 55.8067C50.7307 56.5816 50.4229 57.3248 49.8749 57.8727C49.327 58.4207 48.5838 58.7285 47.8089 58.7285H16.2156C15.4407 58.7285 14.6975 58.4207 14.1495 57.8727C13.6016 57.3248 13.2938 56.5816 13.2938 55.8067V50.3966H50.7307V55.8067ZM51.4564 33.8365L51.2962 33.9214C51.1541 34.0105 51.0327 34.1288 50.9401 34.2686C50.8474 34.4084 50.7857 34.5664 50.759 34.7319C50.7543 34.7978 50.7543 34.864 50.759 34.9299V48.1252H13.3126V34.9299C13.3172 34.8671 13.3172 34.8041 13.3126 34.7414C13.2915 34.5693 13.2302 34.4046 13.1335 34.2607C13.0453 34.1251 12.9297 34.0096 12.7942 33.9214L12.6057 33.8271C10.0533 32.7197 7.96077 30.7661 6.68107 28.2955C5.40136 25.825 5.01274 22.9887 5.58073 20.265C6.14873 17.5413 7.63859 15.0967 9.79909 13.3436C11.9596 11.5905 14.6585 10.636 17.4409 10.6411C17.6294 10.6411 17.8367 10.6411 18.0346 10.6411H18.5059L18.3739 10.8673C17.0049 13.2439 16.2834 15.9381 16.2815 18.6808C16.2815 18.9883 16.4037 19.2831 16.6211 19.5005C16.8385 19.718 17.1334 19.8401 17.4409 19.8401C17.7483 19.8401 18.0432 19.718 18.2606 19.5005C18.478 19.2831 18.6002 18.9883 18.6002 18.6808C18.6928 15.184 20.1471 11.8616 22.6531 9.42108C25.1591 6.9806 28.5189 5.61493 32.0169 5.61493C35.515 5.61493 38.8748 6.9806 41.3808 9.42108C43.8868 11.8616 45.341 15.184 45.4337 18.6808C45.4337 18.9883 45.5559 19.2831 45.7733 19.5005C45.9907 19.718 46.2856 19.8401 46.593 19.8401C46.9005 19.8401 47.1954 19.718 47.4128 19.5005C47.6302 19.2831 47.7523 18.9883 47.7523 18.6808C47.7417 15.9631 47.0204 13.2954 45.6599 10.9427L45.528 10.7165H45.9992C46.1972 10.7165 46.4045 10.7165 46.593 10.7165C49.367 10.7165 52.0565 11.6711 54.2099 13.4198C56.3633 15.1685 57.8494 17.6049 58.4187 20.3198C58.988 23.0348 58.6059 25.8629 57.3363 28.3294C56.0668 30.7959 53.9873 32.7504 51.447 33.8648L51.4564 33.8365Z" fill="black"/>
</svg>
