<svg width="83" height="68" viewBox="0 0 83 68" fill="none" xmlns="http://www.w3.org/2000/svg">
<g clip-path="url(#clip0_348_2667)">
<path d="M82.5512 51.1709L75.9231 44.5429V16.0674L80.6976 14.5773C80.9296 14.5043 81.1323 14.3593 81.2763 14.1632C81.4202 13.9672 81.4978 13.7303 81.4978 13.4871C81.4978 13.2438 81.4202 13.007 81.2763 12.8109C81.1323 12.6148 80.9296 12.4698 80.6976 12.3969L41.1579 0.0549787C40.935 -0.0168614 40.6951 -0.0168614 40.4722 0.0549787L0.932482 12.3969C0.700453 12.4698 0.49774 12.6148 0.353831 12.8109C0.209923 13.007 0.132324 13.2438 0.132324 13.4871C0.132324 13.7303 0.209923 13.9672 0.353831 14.1632C0.49774 14.3593 0.700453 14.5043 0.932482 14.5773L15.2239 19.0455V34.3768C15.2282 38.0792 16.7008 41.6287 19.3187 44.2466C21.9367 46.8646 25.4862 48.3372 29.1885 48.3414H52.4164C56.1207 48.3402 59.6732 46.8689 62.2936 44.2507C64.914 41.6324 66.3882 38.0812 66.3924 34.3768V19.0455L73.6444 16.7805V44.5406L67.0164 51.1687C66.91 51.2748 66.8255 51.4009 66.7679 51.5397C66.7103 51.6786 66.6807 51.8274 66.6807 51.9777C66.6807 52.128 66.7103 52.2769 66.7679 52.4157C66.8255 52.5546 66.91 52.6807 67.0164 52.7868L73.6444 59.4149V66.6006C73.6444 66.9037 73.7648 67.1943 73.9791 67.4086C74.1935 67.623 74.4841 67.7433 74.7872 67.7433C75.0903 67.7433 75.381 67.623 75.5953 67.4086C75.8096 67.1943 75.93 66.9037 75.93 66.6006V59.424L82.558 52.796C82.665 52.6892 82.7498 52.5623 82.8074 52.4226C82.8651 52.2829 82.8944 52.1331 82.8938 51.982C82.8932 51.8309 82.8625 51.6814 82.8037 51.5422C82.7449 51.4029 82.6591 51.2768 82.5512 51.1709ZM40.7945 2.34051L76.5196 13.4848L40.7945 24.6336L5.08987 13.4848L40.7945 2.34051ZM64.1069 34.3768C64.1033 37.4736 62.8713 40.4425 60.6814 42.632C58.4914 44.8215 55.5223 46.0529 52.4255 46.0559H29.1885C26.0922 46.0523 23.1237 44.8207 20.9342 42.6312C18.7447 40.4417 17.5131 37.4732 17.5095 34.3768V19.7494L40.4631 26.9123C40.5702 26.9473 40.6818 26.9665 40.7945 26.9694C40.91 26.9692 41.0248 26.9515 41.135 26.9169L64.1069 19.7586V34.3768ZM74.7872 57.3305L69.4368 51.98L74.7781 46.625L80.1262 51.9754L74.7872 57.3305Z" fill="white"/>
</g>
<defs>
<clipPath id="clip0_348_2667">
<rect width="82.7752" height="67.7432" fill="white" transform="translate(0.112305)"/>
</clipPath>
</defs>
</svg>
