<svg width="65" height="64" viewBox="0 0 65 64" fill="none" xmlns="http://www.w3.org/2000/svg">
<path d="M32.5002 5.43994C17.8335 5.43994 5.8335 17.4133 5.8335 32.1599C5.8335 45.4933 15.5935 56.5599 28.3402 58.5599V39.8933H21.5668V32.1599H28.3402V26.2666C28.3402 19.5733 32.3135 15.8933 38.4202 15.8933C41.3268 15.8933 44.3668 16.3999 44.3668 16.3999V22.9866H41.0068C37.7002 22.9866 36.6602 25.0399 36.6602 27.1466V32.1599H44.0735L42.8735 39.8933H36.6602V58.5599C42.944 57.5675 48.666 54.3613 52.7933 49.5201C56.9206 44.6789 59.1811 38.5217 59.1668 32.1599C59.1668 17.4133 47.1668 5.43994 32.5002 5.43994Z" fill="white"/>
</svg>
