<svg width="65" height="64" viewBox="0 0 65 64" fill="none" xmlns="http://www.w3.org/2000/svg">
<path d="M21.3002 5.33337H43.7002C52.2335 5.33337 59.1668 12.2667 59.1668 20.8V43.2C59.1668 47.3021 57.5373 51.2361 54.6367 54.1366C51.7362 57.0372 47.8022 58.6667 43.7002 58.6667H21.3002C12.7668 58.6667 5.8335 51.7334 5.8335 43.2V20.8C5.8335 16.698 7.46302 12.764 10.3636 9.86346C13.2641 6.96289 17.1981 5.33337 21.3002 5.33337ZM20.7668 10.6667C18.2207 10.6667 15.779 11.6781 13.9786 13.4785C12.1783 15.2788 11.1668 17.7206 11.1668 20.2667V43.7334C11.1668 49.04 15.4602 53.3334 20.7668 53.3334H44.2335C46.7796 53.3334 49.2214 52.3219 51.0217 50.5216C52.8221 48.7212 53.8335 46.2794 53.8335 43.7334V20.2667C53.8335 14.96 49.5402 10.6667 44.2335 10.6667H20.7668ZM46.5002 14.6667C47.3842 14.6667 48.2321 15.0179 48.8572 15.643C49.4823 16.2681 49.8335 17.116 49.8335 18C49.8335 18.8841 49.4823 19.7319 48.8572 20.3571C48.2321 20.9822 47.3842 21.3334 46.5002 21.3334C45.6161 21.3334 44.7683 20.9822 44.1431 20.3571C43.518 19.7319 43.1668 18.8841 43.1668 18C43.1668 17.116 43.518 16.2681 44.1431 15.643C44.7683 15.0179 45.6161 14.6667 46.5002 14.6667ZM32.5002 18.6667C36.0364 18.6667 39.4278 20.0715 41.9282 22.5719C44.4287 25.0724 45.8335 28.4638 45.8335 32C45.8335 35.5363 44.4287 38.9276 41.9282 41.4281C39.4278 43.9286 36.0364 45.3334 32.5002 45.3334C28.9639 45.3334 25.5726 43.9286 23.0721 41.4281C20.5716 38.9276 19.1668 35.5363 19.1668 32C19.1668 28.4638 20.5716 25.0724 23.0721 22.5719C25.5726 20.0715 28.9639 18.6667 32.5002 18.6667ZM32.5002 24C30.3784 24 28.3436 24.8429 26.8433 26.3432C25.343 27.8435 24.5002 29.8783 24.5002 32C24.5002 34.1218 25.343 36.1566 26.8433 37.6569C28.3436 39.1572 30.3784 40 32.5002 40C34.6219 40 36.6567 39.1572 38.157 37.6569C39.6573 36.1566 40.5002 34.1218 40.5002 32C40.5002 29.8783 39.6573 27.8435 38.157 26.3432C36.6567 24.8429 34.6219 24 32.5002 24Z" fill="white"/>
</svg>
