<svg width="175" height="65" viewBox="0 0 175 65" fill="none" xmlns="http://www.w3.org/2000/svg">
<g clip-path="url(#clip0_604_1050)">
<path d="M86.0623 56.5267C106.249 55.0727 121.704 41.2671 120.582 25.6911C119.46 10.1151 102.186 -1.333 81.9993 0.121071C61.8127 1.57515 46.3578 15.3807 47.4797 30.9567C48.6017 46.5327 65.8757 57.9808 86.0623 56.5267Z" fill="url(#paint0_radial_604_1050)"/>
<path d="M7.48926 58.7096C7.48926 58.7096 53.8359 52.9751 99.8868 62.6491L97.5271 49.0288L13.4456 53.2843L7.48926 58.7096Z" fill="#008255"/>
<path d="M166.093 63.7855C113.864 52.1797 59.9109 50.5579 7.07928 59.0056C4.85629 47.3125 2.62657 35.6239 0.390137 23.9397C57.6423 11.3741 116.755 9.75003 174.61 19.1531C171.773 34.0328 168.934 48.9103 166.093 63.7855Z" fill="#ED1C24"/>
<path d="M166.093 63.7855C113.864 52.1797 59.9109 50.5579 7.07928 59.0056C4.85629 47.3125 2.62657 35.6239 0.390137 23.9397C57.6423 11.3741 116.755 9.75003 174.61 19.1531C171.773 34.0328 168.934 48.9103 166.093 63.7855Z" stroke="white" stroke-miterlimit="10"/>
<path d="M25.2641 46.2393C25.9723 39.781 26.8171 33.316 27.7986 26.8442C29.2373 26.5349 30.6759 26.2347 32.1146 25.9433C33.3471 31.9535 34.5684 37.9435 35.7785 43.9133C36.7869 37.4953 37.9343 31.0594 39.2206 24.6055C39.9914 24.4621 40.7646 24.3276 41.5399 24.2021C39.7472 32.0543 38.1629 39.9132 36.7869 47.7788C35.281 48.0836 33.7774 48.3973 32.276 48.72C31.1958 43.7542 30.1045 38.7883 29.002 33.8224C27.9801 39.2499 27.0681 44.6752 26.2658 50.0982C24.7779 50.4612 23.2966 50.8332 21.8221 51.2142C20.1011 44.6035 18.3756 37.9995 16.6456 31.4022C13.3649 33.3115 12.3094 36.0476 13.2035 39.2208C13.3653 39.9104 13.7089 40.5441 14.1985 41.0561C12.0338 41.6611 10.6421 41.2914 10.0304 39.2141C8.86734 35.3955 13.7682 30.0106 19.2674 28.6661C19.7246 28.5585 20.1616 28.4778 20.612 28.4039C22.1717 34.3468 23.7224 40.2919 25.2641 46.2393Z" fill="#F1F2F2"/>
<path d="M47.3753 30.7095C47.1199 34.1785 46.8958 37.6519 46.703 41.1298C46.6634 41.4513 46.6634 41.7764 46.703 42.0979C46.8375 42.9248 47.2812 43.1265 48.1484 42.992C49.3585 42.8038 50.3064 41.513 50.5619 39.96L51.9065 39.7718C50.8106 44.8542 47.8728 45.9702 46.2392 46.2458C44.4039 46.5483 42.777 45.7416 42.3333 43.2609C42.2304 42.6142 42.1988 41.9582 42.2391 41.3046C42.387 38.0149 42.5551 34.7297 42.7433 31.449C44.2761 31.1936 45.8201 30.9471 47.3753 30.7095ZM44.9081 24.659C45.5684 24.5236 46.2555 24.6546 46.8197 25.0236C47.3838 25.3926 47.7793 25.9695 47.9199 26.6288C47.8983 27.2533 47.6599 27.8508 47.2457 28.3186C46.8315 28.7864 46.2673 29.0954 45.65 29.1924C45.0327 29.2895 44.4009 29.1685 43.8632 28.8504C43.3254 28.5322 42.9152 28.0367 42.703 27.449C42.657 27.118 42.6779 26.7811 42.7646 26.4584C42.8513 26.1357 43.002 25.8337 43.2076 25.5703C43.4133 25.3069 43.6698 25.0876 43.9619 24.9252C44.254 24.7629 44.5758 24.661 44.9081 24.6254V24.659Z" fill="#F1F2F2"/>
<path d="M56.7331 23.4087C56.1102 28.9169 55.5432 34.4228 55.0323 39.9265C54.9949 40.2459 54.9949 40.5685 55.0323 40.8879C55.1398 41.7215 55.5835 41.9366 56.4508 41.829C57.6676 41.6744 58.6491 40.4173 58.9516 38.871L60.2962 38.7231C59.039 43.7719 56.1012 44.7736 54.434 45.0223C52.5919 45.2711 50.9919 44.4173 50.6222 41.9232C50.5498 41.2708 50.5498 40.6125 50.6222 39.9601C51.0121 34.8463 51.4603 29.7303 51.9667 24.6121C53.5062 24.202 55.1264 23.7986 56.7331 23.4087Z" fill="#F1F2F2"/>
<path d="M71.8259 38.2658C71.7768 38.5543 71.7565 38.8471 71.7654 39.1397C71.8124 39.812 72.162 40.3162 73.1099 40.2557C73.4539 40.2544 73.7926 40.1715 74.0982 40.0137C74.108 40.4428 74.0323 40.8696 73.8754 41.2692C73.7186 41.6688 73.4838 42.0331 73.1847 42.341C72.8856 42.6488 72.5281 42.8941 72.1333 43.0624C71.7384 43.2307 71.3139 43.3187 70.8847 43.3213C70.139 43.4416 69.3752 43.2805 68.7416 42.8693C68.108 42.4581 67.6499 41.8261 67.4561 41.096C67.0405 41.8761 66.4439 42.5452 65.7163 43.047C64.9887 43.5488 64.1514 43.8688 63.2745 43.9801C61.1838 44.1885 59.0325 43.1734 58.609 39.6305C58.1115 35.5968 60.0342 28.8741 65.7552 28.3631C67.6174 28.2018 68.4443 28.8068 68.5183 29.7077V29.822C68.8612 27.4892 69.1906 25.1631 69.5872 22.8303C71.2141 22.5143 72.8477 22.2051 74.4814 21.916C73.5447 27.3525 72.6595 32.8024 71.8259 38.2658ZM68.3569 31.0657C68.2831 30.7605 68.0965 30.4945 67.8346 30.3212C67.5727 30.1478 67.255 30.08 66.9452 30.1312C64.1687 30.3598 62.9115 35.9128 63.2342 38.7162C63.4695 41.0154 64.4712 40.9414 65.0292 40.8944C65.6079 40.7892 66.1382 40.5025 66.5431 40.0758C66.948 39.6492 67.2065 39.1047 67.2813 38.5212C67.6309 36.0428 67.9894 33.5576 68.3569 31.0657Z" fill="#F1F2F2"/>
<path d="M88.4784 26.5615C88.1953 26.5724 87.9131 26.5236 87.6502 26.4181C87.3872 26.3127 87.1494 26.1531 86.9523 25.9497C87.3942 25.6754 87.7593 25.2935 88.0132 24.8396C88.2672 24.3857 88.4018 23.8748 88.4044 23.3547C88.4044 22.306 87.7321 21.3379 85.9035 21.3782C84.075 21.4186 82.8581 22.3732 82.9119 24.1749C83.0666 28.5514 90.428 29.0422 90.428 35.5431C90.428 40.5784 86.2195 43.0322 81.7422 43.1936C78.2194 43.3078 75.1068 41.9969 74.8715 38.3465C74.8017 37.7113 74.8639 37.0686 75.0541 36.4586C75.2444 35.8486 75.5586 35.2845 75.977 34.8017C76.3955 34.3188 76.9092 33.9276 77.486 33.6526C78.0627 33.3776 78.6901 33.2247 79.3287 33.2036C80.4514 33.1565 82.0716 33.5262 82.2195 35.0792C80.4917 35.133 78.5152 35.9666 78.6161 38.0372C78.6231 38.4298 78.7119 38.8167 78.8768 39.1731C79.0418 39.5294 79.2793 39.8475 79.5741 40.1069C79.8689 40.3663 80.2146 40.5613 80.5891 40.6796C80.9635 40.7978 81.3586 40.8366 81.7489 40.7935C83.8397 40.7196 85.3388 39.2271 85.2851 36.7061C85.1775 31.5968 78.4682 29.9497 78.2396 25.5463C78.0783 22.4404 81.3926 20.027 85.7422 19.953C87.3221 19.9127 91.1607 20.195 91.1607 23.5026C91.1675 25.2573 90.1187 26.548 88.4784 26.5615Z" fill="#F1F2F2"/>
<path d="M99.2681 26.4203C99.0732 27.1665 98.8782 27.9127 98.69 28.659C99.7991 27.8238 101.17 27.4114 102.556 27.4959C104.788 27.5833 106.502 28.8405 106.32 32.4103C106.098 36.4439 104.122 42.844 98.132 42.6759C96.579 42.6356 95.8395 42.1179 95.5034 41.5398C94.9252 43.9689 94.3628 46.4003 93.816 48.834C92.2832 49.1791 90.7571 49.5354 89.2378 49.9029C90.8647 42.0328 92.6283 34.1739 94.5286 26.3262C96.1107 26.3486 97.6905 26.38 99.2681 26.4203ZM101.903 32.1212C101.984 29.8086 100.949 29.5934 100.364 29.5733C99.8989 29.6063 99.4488 29.7514 99.052 29.996C98.6551 30.2407 98.3234 30.5777 98.0849 30.9783C97.3858 33.7615 96.7135 36.547 96.0681 39.3347C96.1638 39.5625 96.3292 39.7542 96.5405 39.8822C96.7519 40.0102 96.9984 40.068 97.2446 40.0473C100.498 40.1213 101.796 34.9582 101.903 32.1212Z" fill="#F1F2F2"/>
<path d="M123.08 29.1767C121.937 32.4709 120.817 35.7695 119.719 39.0726C119.606 39.3759 119.531 39.6921 119.497 40.0138C119.454 40.1853 119.451 40.3644 119.49 40.537C119.528 40.7095 119.606 40.8708 119.718 41.0078C119.829 41.1449 119.971 41.2541 120.133 41.3266C120.294 41.3991 120.47 41.433 120.646 41.4256C121.87 41.5601 122.858 40.3432 123.504 38.9113L124.848 39.0659C122.475 43.6979 119.645 44.0542 117.964 43.8929C117.578 43.8882 117.197 43.805 116.845 43.6485C116.492 43.4919 116.175 43.2652 115.913 42.9822C115.65 42.6992 115.449 42.3658 115.319 42.0022C115.19 41.6387 115.136 41.2527 115.161 40.8676C114.072 42.1584 112.472 43.4088 110.3 43.2542C108.129 43.0996 106.266 41.7416 106.421 38.1785C106.616 34.1449 109.655 27.812 115.389 28.2826C117.258 28.4372 117.984 29.17 117.91 30.0373V30.2457L118.414 28.6994C119.941 28.8473 121.514 29.0087 123.08 29.1767ZM111.114 38.0508C110.952 40.3567 111.954 40.4575 112.519 40.5046C113.426 40.5718 114.818 39.7852 115.342 38.0844C116.041 35.8793 116.749 33.6765 117.467 31.4759C117.467 31.3141 117.435 31.1539 117.372 31.0046C117.31 30.8552 117.219 30.7198 117.103 30.606C116.988 30.4922 116.852 30.4023 116.702 30.3416C116.552 30.2809 116.391 30.2506 116.23 30.2524C113.446 29.9768 111.295 35.2407 111.114 38.0508Z" fill="#F1F2F2"/>
<path d="M131.51 30.2523C131.282 30.8439 131.06 31.4422 130.838 32.0338C132.095 31.301 133.467 30.5279 135.033 30.7632C135.336 30.795 135.629 30.8886 135.895 31.0382C136.16 31.1879 136.392 31.3904 136.575 31.6332C136.759 31.8761 136.891 32.1541 136.963 32.45C137.035 32.7459 137.046 33.0534 136.994 33.3536C136.942 33.6537 136.83 33.9401 136.663 34.1949C136.496 34.4498 136.279 34.6676 136.024 34.8351C135.77 35.0025 135.484 35.1159 135.184 35.1683C134.884 35.2208 134.576 35.211 134.28 35.1397C132.485 34.8708 133.669 33.0489 132.7 32.9078C131.732 32.7666 131.087 33.1296 130.186 33.7011C128.842 37.3448 127.508 40.9975 126.186 44.6591C124.7 44.4709 123.215 44.2894 121.722 44.128C123.367 39.2832 125.063 34.4518 126.811 29.6338C128.405 29.8086 129.944 30.0103 131.51 30.2523Z" fill="#F1F2F2"/>
<path d="M152.176 33.8828C149.734 34.7792 147.318 35.707 144.929 36.6661C145.29 36.6679 145.649 36.6971 146.005 36.7535C146.478 36.8057 146.934 36.9598 147.342 37.2052C147.75 37.4506 148.1 37.7815 148.368 38.1751C148.635 38.5686 148.815 39.0156 148.893 39.4851C148.971 39.9545 148.947 40.4355 148.822 40.8947C148.748 41.2709 148.628 41.6366 148.466 41.9838L147.793 43.3821C147.647 43.6722 147.53 43.9763 147.444 44.2897C147.329 44.8813 147.444 45.4258 148.439 45.6342C149.783 45.9233 150.583 44.9619 151.598 43.6174L152.943 43.9065C150.079 48.4242 147.518 48.3973 146.099 48.1149C143.585 47.604 142.449 46.1519 142.845 44.0006C142.949 43.485 143.109 42.9823 143.323 42.5014L143.786 41.3989C143.939 41.0596 144.05 40.7029 144.116 40.3367C144.277 39.4829 144.069 38.8577 143.242 38.7031C142.344 38.6447 141.452 38.8808 140.701 39.3753C139.719 41.6812 138.758 44.0342 137.817 46.3872C136.338 46.1317 134.854 45.8897 133.366 45.6611C135.885 39.1714 138.505 32.7131 141.225 26.2861C142.892 26.3668 144.562 26.4632 146.234 26.5752C144.768 29.8738 143.329 33.1837 141.918 36.5047C144.239 35.3843 146.59 34.2885 148.97 33.2173L152.176 33.8828Z" fill="#F1F2F2"/>
<path d="M163.309 35.5299C161.803 43.1603 161.817 44.3704 161.346 46.2863C160.372 50.0578 156.459 50.3939 153.951 49.8158C150.839 49.0964 149.918 46.8578 150.281 45.0628C150.39 44.4947 150.66 43.9701 151.06 43.5517C151.459 43.1332 151.97 42.8386 152.533 42.7031C154.737 40.3228 156.699 37.7284 158.388 34.9585C160.029 35.1333 161.669 35.3238 163.309 35.5299ZM152.808 45.3788C152.644 45.3577 152.488 45.2939 152.356 45.1936C152.223 45.0933 152.12 44.9601 152.055 44.8073C151.753 46.1519 152.129 46.9721 153.487 47.2813C154.845 47.5906 156.324 47.241 156.815 45.1973C157.171 43.6846 157.111 42.7098 157.844 38.1451C156.712 39.8923 155.433 41.5387 154.019 43.0661C154.209 43.1931 154.357 43.3745 154.444 43.5867C154.53 43.7988 154.55 44.0321 154.503 44.2561C154.42 44.6259 154.198 44.9494 153.882 45.1588C153.566 45.3681 153.181 45.4469 152.808 45.3788Z" fill="#F1F2F2"/>
<path d="M163.363 28.2357V29.1096H162.946V26.8911H163.619C163.757 26.8703 163.897 26.8703 164.035 26.8911C164.131 26.914 164.221 26.9576 164.298 27.0188C164.368 27.0719 164.422 27.1443 164.452 27.2272C164.489 27.3097 164.507 27.3992 164.506 27.4894C164.516 27.5585 164.516 27.6287 164.506 27.6978C164.483 27.7658 164.449 27.8295 164.405 27.8861C164.362 27.9415 164.31 27.9892 164.251 28.0273C164.186 28.0701 164.116 28.104 164.042 28.1281C164.098 28.1578 164.144 28.2019 164.177 28.2558L164.741 29.0827H164.365C164.334 29.0897 164.302 29.0897 164.271 29.0827C164.244 29.0697 164.223 29.0484 164.21 29.0222L163.74 28.3029L163.679 28.2424H163.585L163.363 28.2357ZM163.363 27.9331H163.625C163.694 27.944 163.765 27.944 163.834 27.9331C163.886 27.9159 163.934 27.8885 163.975 27.8525C164.013 27.8199 164.043 27.7783 164.062 27.7314C164.072 27.6781 164.072 27.6234 164.062 27.5701C164.065 27.5206 164.056 27.4711 164.036 27.4257C164.016 27.3802 163.986 27.3399 163.948 27.3079C163.847 27.2409 163.726 27.2102 163.605 27.2205H163.363V27.9331Z" fill="white"/>
<path d="M163.712 30.0169C163.287 30.0169 162.871 29.8907 162.517 29.6544C162.163 29.418 161.888 29.082 161.725 28.6889C161.562 28.2958 161.519 27.8633 161.602 27.4459C161.685 27.0286 161.89 26.6453 162.191 26.3445C162.492 26.0436 162.875 25.8387 163.293 25.7557C163.71 25.6727 164.142 25.7153 164.536 25.8781C164.929 26.0409 165.265 26.3167 165.501 26.6705C165.737 27.0242 165.864 27.4402 165.864 27.8656C165.864 28.4362 165.637 28.9834 165.234 29.3868C164.83 29.7903 164.283 30.0169 163.712 30.0169ZM163.712 25.8891C163.32 25.8892 162.936 26.0056 162.61 26.2239C162.284 26.4421 162.029 26.7522 161.879 27.115C161.73 27.4778 161.691 27.8769 161.768 28.2617C161.845 28.6466 162.034 29 162.312 29.2771C162.59 29.5542 162.944 29.7425 163.33 29.8183C163.715 29.894 164.114 29.8538 164.476 29.7027C164.838 29.5515 165.147 29.2963 165.365 28.9693C165.582 28.6423 165.697 28.2582 165.696 27.8656C165.696 27.6055 165.644 27.348 165.544 27.1077C165.445 26.8675 165.299 26.6493 165.114 26.4657C164.93 26.282 164.711 26.1366 164.471 26.0377C164.23 25.9387 163.972 25.8883 163.712 25.8891Z" fill="white"/>
</g>
<defs>
<radialGradient id="paint0_radial_604_1050" cx="0" cy="0" r="1" gradientUnits="userSpaceOnUse" gradientTransform="translate(84.1109 28.2852) rotate(-4.12) scale(35.0995 29.6057)">
<stop offset="0.52" stop-color="#E8E73B"/>
<stop offset="1" stop-color="#F68A21"/>
</radialGradient>
<clipPath id="clip0_604_1050">
<rect width="175" height="64.1889" fill="white"/>
</clipPath>
</defs>
</svg>
