<svg width="74" height="74" viewBox="0 0 74 74" fill="none" xmlns="http://www.w3.org/2000/svg">
<path d="M71.9998 20.4433C71.9991 20.3819 71.9934 20.3206 71.9829 20.2601C71.9829 20.2409 71.9829 20.2216 71.9709 20.1999C71.956 20.136 71.9367 20.0732 71.913 20.0119V19.9975C71.8857 19.9356 71.8535 19.8759 71.8167 19.8192C71.8062 19.8025 71.795 19.7864 71.7829 19.771C71.7516 19.7276 71.7154 19.6842 71.6793 19.6432L71.648 19.6119C71.5988 19.5633 71.5456 19.519 71.4889 19.4794C71.4761 19.47 71.4624 19.4619 71.448 19.4553C71.419 19.436 71.3901 19.4167 71.3588 19.3998L37.4141 1.86117C37.2431 1.77284 37.0534 1.72675 36.861 1.72675C36.6686 1.72675 36.4789 1.77284 36.3079 1.86117L2.37045 19.3998C2.33912 19.4167 2.3102 19.436 2.28129 19.4553L2.24273 19.4794C2.18555 19.5174 2.13227 19.561 2.08368 19.6095L2.05235 19.6432C2.0138 19.6842 1.98006 19.7276 1.94632 19.771L1.91499 19.8167C1.87739 19.8743 1.84435 19.9347 1.81619 19.9975C1.81683 20.0063 1.81683 20.0152 1.81619 20.024C1.7949 20.0807 1.7772 20.1386 1.76317 20.1975C1.76317 20.2192 1.76317 20.2385 1.75113 20.2577C1.73863 20.3237 1.73218 20.3906 1.73185 20.4578V54.5398C1.73066 54.5631 1.73066 54.5864 1.73185 54.6097C1.73347 54.6533 1.73749 54.6967 1.7439 54.7399C1.7439 54.7784 1.76076 54.8146 1.7704 54.8507C1.78004 54.8869 1.79209 54.9254 1.80414 54.9616C1.81619 54.9977 1.83547 55.0339 1.85234 55.07C1.86894 55.1047 1.88745 55.1385 1.90776 55.1712C1.92723 55.204 1.94897 55.2354 1.97283 55.2652C1.99693 55.2965 2.02102 55.3279 2.04753 55.3568C2.07404 55.3857 2.10296 55.4098 2.13188 55.4363L2.22104 55.511C2.25595 55.5354 2.29215 55.5579 2.32948 55.5785C2.34864 55.5927 2.36877 55.6056 2.38973 55.617L34.8717 71.9146C35.1735 72.1123 35.5179 72.2354 35.8766 72.2737C36.0541 72.2734 36.2294 72.2339 36.3899 72.158L71.3178 55.6291C71.3443 55.617 71.3636 55.6002 71.3877 55.5881C71.4268 55.5671 71.4647 55.5438 71.501 55.5182C71.5323 55.4965 71.5612 55.47 71.5901 55.4459C71.619 55.4218 71.6504 55.3953 71.6769 55.3664C71.7034 55.3375 71.7275 55.3062 71.7516 55.2748C71.7762 55.2459 71.7987 55.2153 71.8191 55.1833C71.8399 55.1509 71.8584 55.117 71.8745 55.0821C71.8914 55.0483 71.9106 55.0122 71.9251 54.976C71.9396 54.9399 71.9492 54.9013 71.9588 54.8652C71.9685 54.829 71.9805 54.7905 71.9877 54.7519C71.9941 54.708 71.9982 54.6637 71.9998 54.6194C71.9998 54.5929 71.9998 54.5663 71.9998 54.5398V20.4698C71.9998 20.4698 71.9998 20.4529 71.9998 20.4433ZM34.4186 68.9915L4.12962 53.7976V22.4242L34.4186 37.6325V68.9915ZM35.8862 35.6589L5.57551 20.4553L36.8622 4.28786L68.0814 20.4337L54.8804 26.6727C54.5567 26.2553 54.1454 25.9139 53.6755 25.6726L34.6379 15.9008C33.785 15.463 32.7931 15.3819 31.8805 15.6755C30.9678 15.969 30.2091 16.6131 29.7713 17.466C29.3335 18.3189 29.2525 19.3108 29.546 20.2234C29.8395 21.1361 30.4836 21.8948 31.3365 22.3326L47.0244 30.3862L35.8862 35.6589ZM69.5948 53.7783L36.8212 69.2831V37.8735L48.4052 32.3912V44.6572C48.4052 45.6159 48.7861 46.5353 49.464 47.2132C50.1419 47.8911 51.0613 48.2719 52.02 48.2719C52.9787 48.2719 53.8981 47.8911 54.576 47.2132C55.2539 46.5353 55.6347 45.6159 55.6347 44.6572V28.9692L69.5876 22.3663L69.5948 53.7783Z" fill="white"/>
</svg>
