<svg width="70" height="70" viewBox="0 0 70 70" fill="none" xmlns="http://www.w3.org/2000/svg">
<g clip-path="url(#clip0_348_2637)">
<path d="M62.7325 56.3242C68.2402 49.1796 70.7708 40.1814 69.7946 31.2133C68.8183 22.2451 64.4109 14.0022 57.4948 8.21007C57.4239 8.12043 57.3358 8.04587 57.2357 7.99078C51.4578 3.22192 44.2997 0.437122 36.8181 0.0474758C29.3365 -0.34217 21.9279 1.68398 15.6859 5.82684C15.6012 5.86462 15.5229 5.91537 15.4539 5.97726C9.9232 9.71597 5.56928 14.9498 2.89976 21.0687C2.85608 21.14 2.82196 21.2168 2.79827 21.297C0.948157 25.6284 -0.00380361 30.2902 1.14214e-05 35.0002C1.14214e-05 54.2998 15.7004 70.0002 35 70.0002C40.3105 70.0006 45.5513 68.7912 50.3245 66.4636C55.0977 64.136 59.2779 60.7515 62.5477 56.5671C62.6231 56.4976 62.6857 56.4154 62.7325 56.3242ZM68.1877 35.0002C68.1951 42.2574 65.8109 49.3149 61.4041 55.0809C60.0466 55.3129 58.8885 55.1679 58.1183 54.6605C57.1287 54.0062 57.1432 52.5799 57.2719 50.6353C57.3249 50.0272 57.3436 49.4167 57.3281 48.8066C57.2955 48.0817 57.2502 47.3404 57.2049 46.6318C57.1197 45.2218 57.0236 43.7665 57.0236 42.3456C57.0236 38.8532 55.3925 38.4708 52.4185 37.7749L52.056 37.6879C51.7261 37.6117 51.3311 37.5302 50.9269 37.4432C48.7775 36.9937 44.7794 36.1564 44.1487 34.4637C43.9149 33.8312 44.1814 33.0138 44.9444 32.0098C45.1582 31.7289 45.3956 31.4661 45.6494 31.1725C46.2384 30.5055 46.8473 29.815 47.2207 28.9125C47.4405 28.3236 47.5843 27.7091 47.6484 27.0838C47.7825 26.1323 47.8858 25.5723 48.4132 25.1736C49.0819 24.6716 50.3506 24.7169 51.1099 24.7459C52.6885 24.8021 54.2163 25.1809 55.8347 25.5814C56.46 25.7354 57.1034 25.8949 57.754 26.0345C58.8849 26.2755 60.1101 25.6158 60.8006 24.3907C61.5128 23.122 61.6687 21.1285 59.9669 19.3161C58.0168 17.2446 55.494 18.0475 53.4678 18.7054C52.2698 19.0896 51.1389 19.4539 50.2346 19.2853C50.0246 19.2632 49.8247 19.1839 49.6566 19.0561C49.4885 18.9283 49.3587 18.7568 49.2813 18.5604C48.7376 17.2482 49.5731 14.6656 50.3596 13.5311C51.7968 11.4632 54.4845 10.4139 56.5615 9.79769C60.2071 12.9074 63.1346 16.7712 65.1418 21.1224C67.1491 25.4735 68.1882 30.2084 68.1877 35.0002ZM15.9795 7.82042C19.1239 10.5552 23.4481 9.40985 26.3696 8.63597C26.6832 8.55261 26.984 8.47286 27.2758 8.40218C28.9703 7.97809 29.6409 8.42755 30.7483 9.17062C31.3752 9.61599 32.0426 10.0013 32.7418 10.3215C33.8999 10.8289 34.8731 10.9087 35.7322 10.9793C36.8033 11.0663 37.6497 11.137 38.7479 12.0142C39.6541 12.7391 39.732 13.6906 37.6605 16.8876C37.4902 17.154 37.3253 17.4077 37.1785 17.647C36.671 18.4698 34.7916 18.8195 32.9738 19.1566C31.4659 19.4375 29.9073 19.7257 28.6242 20.3328C26.8553 21.1702 26.0688 22.6889 25.4363 23.9249C24.9053 24.9561 24.55 25.5941 23.9755 25.7173C23.51 25.8019 23.0397 25.8575 22.5673 25.8841C20.7332 26.0272 17.9603 26.2465 17.6595 29.7625C17.4438 32.2708 19.2217 33.6536 20.7514 34.3713C22.281 35.089 24.3181 35.5638 27.2414 35.9009C29.7381 36.2207 32.1846 36.8534 34.5234 37.7839C37.0045 38.7771 38.7987 39.9587 39.4439 41.0081C40.8122 43.2463 39.105 46.5738 37.4503 48.223C35.6271 50.0589 32.9847 54.6423 32.8035 56.8153C32.6875 58.2199 31.4551 62.1581 30.0288 62.8686C29.824 62.9701 29.5811 63.0299 29.1951 62.7852C27.6618 61.8174 27.2468 58.7781 26.9115 56.3351C26.7865 55.4289 26.6687 54.5535 26.5001 53.854C25.9999 51.7915 25.3692 50.164 23.7635 48.4333C23.4427 48.0853 23.1056 47.7482 22.7812 47.422C21.7373 46.3708 20.7514 45.3795 20.2203 44.1072C19.8035 43.105 19.6893 41.9741 19.5679 40.7779C19.4175 39.2827 19.2634 37.7386 18.4805 36.3322C17.6269 34.7863 16.3274 33.9653 15.0697 33.1733C14.68 32.9268 14.2759 32.6713 13.8971 32.3994C12.2261 31.2033 10.7092 29.5722 9.41695 28.1368C7.58947 26.1115 5.99828 23.8849 4.67405 21.5C7.13967 16.0039 11.0461 11.2771 15.9795 7.82042ZM35.0091 68.1878C16.7008 68.1878 1.81236 53.2994 1.81236 35.0002C1.80891 31.1195 2.48928 27.2686 3.82225 23.6241C5.05941 25.6617 6.48535 27.5785 8.08126 29.3493C9.43508 30.8553 11.0336 32.5716 12.8532 33.8801C13.2736 34.181 13.7013 34.451 14.1218 34.712C15.2817 35.4369 16.2839 36.0749 16.9128 37.2148C17.5091 38.3022 17.6378 39.5908 17.7791 40.9646C17.906 42.2332 18.0401 43.5599 18.5602 44.8086C19.2272 46.4107 20.3871 47.576 21.5089 48.7051C21.837 49.035 22.1469 49.3467 22.4477 49.6711C23.7907 51.121 24.309 52.4603 24.7512 54.2853C24.898 54.8961 25.0104 55.7171 25.13 56.5852C25.5142 59.4016 25.9945 62.9048 28.24 64.3239C28.674 64.6119 29.1817 64.7692 29.7025 64.777C30.1021 64.7738 30.4955 64.6776 30.8516 64.4961C33.3145 63.2673 34.5197 58.2163 34.623 56.9712C34.7463 55.5032 36.9428 51.3203 38.7516 49.5098C40.6781 47.5851 42.9925 43.3206 41.0043 40.0675C39.0162 36.8143 31.7614 34.6014 27.4643 34.1049C21.75 33.447 19.2888 32.1566 19.49 29.9238C19.6513 28.0244 20.7133 27.8523 22.7304 27.6964C23.2833 27.6645 23.8336 27.5974 24.3779 27.4952C25.8277 27.1853 26.4566 25.9529 27.071 24.7604C27.631 23.673 28.2092 22.5512 29.4271 21.9766C30.4927 21.471 31.9335 21.2028 33.3272 20.9454C35.6361 20.5159 37.8164 20.1117 38.7443 18.6021C38.8857 18.3737 39.0434 18.1308 39.2065 17.8771C40.4552 15.9488 42.543 12.7192 39.9024 10.6042C38.371 9.38085 37.0588 9.27392 35.9026 9.17787C35.116 9.11262 34.3711 9.05281 33.4903 8.66678C32.888 8.38907 32.3129 8.05598 31.7722 7.67181C30.5706 6.8635 29.3274 6.02982 26.8499 6.64964C26.5581 6.72214 26.2482 6.80369 25.9256 6.89069C23.2506 7.59931 19.9938 8.45836 17.5888 6.77288C23.2518 3.26906 29.8395 1.55377 36.4921 1.85089C43.1448 2.14801 49.5534 4.44373 54.8814 8.43843C52.7592 9.17968 50.3506 10.374 48.8844 12.4963C47.9982 13.7649 46.7186 17.0616 47.6157 19.2473C47.8059 19.7264 48.1183 20.1474 48.5219 20.4682C48.9254 20.7891 49.4059 20.9986 49.9156 21.0759C51.2694 21.326 52.674 20.8747 54.0333 20.438C56.1773 19.7493 57.5474 19.3868 58.6565 20.5666C59.9506 21.9404 59.425 23.1601 59.2329 23.5008C58.9193 24.0554 58.4354 24.3254 58.1455 24.262C57.5275 24.1297 56.8949 23.972 56.2824 23.8216C54.6513 23.4156 52.9549 22.997 51.1879 22.9336C49.8957 22.8864 48.4259 22.9046 47.3366 23.7274C46.1822 24.5973 46.0082 25.8351 45.8668 26.8301C45.8219 27.3044 45.7184 27.7713 45.5587 28.2202C45.3014 28.8418 44.8157 29.3928 44.3028 29.9745C44.04 30.2717 43.77 30.578 43.5162 30.9079C42.3509 32.4321 41.9975 33.8403 42.4632 35.0962C43.4419 37.7259 47.7299 38.623 50.5681 39.2175C50.9686 39.3008 51.3474 39.3806 51.6555 39.4531L52.0288 39.5401C54.9286 40.2197 55.2348 40.2904 55.2348 42.3456C55.2348 43.8208 55.3255 45.307 55.4161 46.7423C55.4596 47.4492 55.5049 48.1795 55.5375 48.8954C55.5485 49.4397 55.5303 49.9842 55.4831 50.5265C55.3545 52.4748 55.195 54.8997 57.1396 56.1828C57.9571 56.6917 58.8955 56.9732 59.8581 56.9984C56.7462 60.5209 52.92 63.3405 48.6339 65.2698C44.3479 67.1991 39.7002 68.1938 35 68.1878H35.0091Z" fill="white"/>
</g>
<defs>
<clipPath id="clip0_348_2637">
<rect width="70" height="70" fill="white"/>
</clipPath>
</defs>
</svg>
