<svg width="64" height="64" viewBox="0 0 64 64" fill="none" xmlns="http://www.w3.org/2000/svg">
<path d="M52.6776 15.7078C46.898 14.5094 41.0176 13.8625 35.1157 13.7758C35.1664 13.21 35.3775 12.6705 35.7243 12.2205L35.5697 12.2978L34.9804 10.5203C34.6795 10.6593 34.4112 10.8602 34.1931 11.1099C33.9751 11.3595 33.8122 11.6524 33.715 11.9693C33.4849 12.5423 33.3165 13.1382 33.2127 13.7468H30.4402C30.7163 11.7611 31.4759 9.87358 32.6524 8.25022C33.2764 7.36892 34.1231 6.66891 35.106 6.22161L34.8452 5.36187L34.5071 4.47314C34.2849 4.55042 29.6771 6.18297 28.5275 13.8144C22.7447 13.9166 16.9844 14.5635 11.323 15.7464C5.21784 17.0892 2.12662 18.9632 2.12662 21.243C2.08747 28.3235 3.83158 35.3 7.19815 41.5291C10.091 46.9839 14.4858 51.4959 19.8625 54.5315V57.4295L20.5 57.6517C27.9723 60.1929 36.0777 60.1759 43.5392 57.6034L44.1768 57.3812V54.4832C49.5307 51.4667 53.9138 46.9865 56.8121 41.5677C60.1787 35.3386 61.9228 28.3622 61.8837 21.2816C61.8837 18.9922 58.7828 17.1278 52.6776 15.7464V15.7078ZM32.0051 15.6402H32.9712C32.9712 16.2198 32.9132 16.838 32.9035 17.5045V26.8362H30.1408V17.5045C30.1408 16.867 30.1408 16.2487 30.2084 15.6498L32.0051 15.6402ZM11.719 17.5722C17.1815 16.4416 22.7376 15.8239 28.315 15.7271C28.2667 16.3067 28.2474 16.9056 28.2474 17.5432V26.7879C22.693 26.6889 17.1598 26.0745 11.719 24.9524C5.60424 23.5711 3.99101 21.9675 3.99101 21.243C3.99101 20.5185 5.62356 18.9149 11.719 17.5335V17.5722ZM55.1313 40.6597C52.3438 45.9514 48.0468 50.2955 42.7858 53.1405L42.2738 53.4013V56.0481C35.5959 58.1924 28.4144 58.1924 21.7365 56.0481V53.4013L21.2245 53.1405C15.9492 50.3016 11.6381 45.9569 8.84035 40.6597C6.06754 35.5636 4.44523 29.9219 4.08761 24.1313C6.33523 25.4177 8.78512 26.3127 11.3326 26.7782C16.9085 27.9134 22.5772 28.531 28.2667 28.6233V32.9123C21.3211 34.6994 16.3559 40.5534 14.3756 42.9877C13.6891 41.5967 13.3321 40.0663 13.3323 38.5151H11.4582C11.4582 42.6883 13.6317 46.5909 17.5827 49.5083C21.8036 52.4654 26.8522 54.0107 32.0051 53.9229C37.1628 54.0126 42.216 52.4635 46.4373 49.4986C50.3882 46.6006 52.5617 42.7366 52.5617 38.5151H50.678C50.679 40.0518 50.3287 41.5684 49.654 42.9491C47.9794 40.6372 46.0116 38.5525 43.8001 36.7474C40.4812 33.9634 36.279 32.453 31.9472 32.4873C31.3289 32.4873 30.7107 32.5549 30.1021 32.6322V28.7682H32.9132V31.5213H34.8452V28.6812C40.8505 28.6137 46.8353 27.9667 52.7163 26.7492C55.2625 26.2944 57.7125 25.4091 59.9613 24.1313C59.5798 29.9278 57.9311 35.5699 55.1313 40.6597ZM30.1408 38.9885V34.4772C30.7642 34.3794 31.3935 34.3246 32.0245 34.313C35.9122 34.3026 39.6775 35.6718 42.6505 38.177C44.8179 39.958 46.7408 42.0173 48.3693 44.3015L48.6591 44.6879C45.5485 49.0543 39.2695 52.0585 32.0341 52.0585C24.7987 52.0585 18.5101 49.0639 15.4188 44.6976L15.6507 44.4174C17.3315 42.3405 21.9007 36.6894 28.2957 34.883V38.9788L30.1408 38.9885ZM52.2333 24.9524C46.5101 26.1276 40.6875 26.7519 34.8452 26.8168V17.5045C34.8452 16.809 34.8452 16.2004 34.9032 15.6691C40.7456 15.7303 46.5686 16.3547 52.2912 17.5335C58.4061 18.9149 60.0193 20.5088 60.0193 21.243C60.0193 21.9771 58.3867 23.5711 52.2912 24.9524H52.2333Z" fill="black"/>
<path d="M32.0049 59.6416C28.0764 59.6429 24.1752 58.99 20.4612 57.7096L19.7463 57.4681V54.5701C14.3813 51.5487 9.99083 47.0577 7.09166 41.6256C3.7077 35.3676 1.95675 28.3572 2.00081 21.2429C2.00081 18.8859 5.13067 17.0312 11.3034 15.5822C16.937 14.4084 22.6676 13.7617 28.421 13.6501C29.6189 6.06701 34.275 4.4731 34.4682 4.35718H34.5841L35.2603 6.35681H35.1541C34.1943 6.79739 33.3654 7.47979 32.7487 8.33712C31.6153 9.90832 30.8705 11.7258 30.5752 13.6405H33.1158C33.221 13.0614 33.3861 12.4949 33.6085 11.95C33.7086 11.615 33.8794 11.3055 34.1094 11.0422C34.3393 10.7789 34.6231 10.5679 34.9416 10.4237H35.0575L35.6468 12.2011L35.811 12.3654C35.5095 12.7679 35.3136 13.2395 35.241 13.7371C41.1075 13.8286 46.9522 14.4755 52.6967 15.6691C58.8695 17.0601 61.9994 18.9632 61.9994 21.3202C62.0384 28.4338 60.2878 35.4431 56.9085 41.7029C54.0164 47.1476 49.6249 51.6497 44.2539 54.6764V57.5744L43.5487 57.8159C39.8281 59.0584 35.9273 59.6753 32.0049 59.6416ZM19.9878 57.3039L20.5384 57.4971C27.9732 60.0283 36.0366 60.0283 43.4714 57.4971L44.022 57.3039V54.4638H44.0896C49.4501 51.4448 53.8294 46.9481 56.7057 41.5097C60.0696 35.28 61.8105 28.3034 61.7675 21.2236C61.7675 18.9921 58.6956 17.1761 52.6484 15.8043C46.8746 14.6106 41.001 13.9638 35.1058 13.8723H34.9802V13.7371C35.0279 13.2415 35.1935 12.7645 35.4632 12.346L34.8933 10.6459C34.397 10.9748 34.0367 11.4724 33.879 12.0466C33.6476 12.6084 33.4823 13.1951 33.3863 13.795V13.8916H33.28C32.314 13.8916 31.4253 13.8916 30.5076 13.8916H30.3627V13.7467C30.6479 11.7424 31.4135 9.83679 32.5942 8.19222C33.2199 7.32992 34.0496 6.63624 35.0092 6.17327L34.4779 4.62766C33.7341 4.91746 29.7541 6.82049 28.6819 13.824V13.9206H28.5756C22.8027 14.0271 17.0524 14.6739 11.4 15.8526C5.30455 17.1954 2.24231 19.0115 2.24231 21.2429C2.19478 28.3233 3.93589 35.301 7.30418 41.529C10.1867 46.948 14.5658 51.4244 19.9202 54.4252H19.9878V57.3039ZM32.0049 57.7869C28.5057 57.7846 25.0283 57.237 21.6976 56.164H21.6107V53.4689L21.176 53.2467C15.8819 50.401 11.5592 46.0379 8.76284 40.7176C5.96302 35.6105 4.31446 29.9527 3.93282 24.141V23.9091L4.12602 24.025C6.36236 25.3248 8.80715 26.2269 11.3517 26.6912C16.9236 27.8311 22.5896 28.4488 28.2761 28.5363H28.3921V33.0379H28.2955C21.1277 34.8636 16.1141 41.0364 14.4719 43.1133L14.356 43.2582L14.2691 43.094C13.6003 41.7198 13.2377 40.2169 13.2065 38.689H11.5836C11.5836 42.7655 13.7764 46.5909 17.6597 49.4599C21.7309 52.3274 26.5906 53.8629 31.5702 53.8553H32.0049C37.1364 53.9496 42.1644 52.4066 46.3597 49.4503C50.2238 46.5523 52.3876 42.7655 52.4263 38.689H50.8034C50.7787 40.2032 50.4226 41.6936 49.7601 43.0553L49.6731 43.2389L49.5572 43.0746C47.8984 40.7708 45.9505 38.6898 43.7612 36.8825C40.4944 34.1328 36.3619 32.6241 32.0919 32.6225H31.947C31.3327 32.6323 30.7197 32.6807 30.1115 32.7674H30.0149V28.6232H30.1405H32.0049H33.0579V31.4246H34.6807V28.5653H34.845C40.8436 28.4924 46.8214 27.8455 52.6967 26.6332C55.2322 26.1788 57.6702 25.2899 59.9031 24.0057L60.0963 23.8898V24.1216C59.7356 29.9282 58.1102 35.5857 55.3339 40.6983C52.5356 46.031 48.2058 50.4046 42.9014 53.2563L42.4571 53.4785V56.1543H42.3701C39.0216 57.2366 35.5241 57.7875 32.0049 57.7869ZM21.8522 55.9611C28.4494 58.0724 35.5411 58.0724 42.1383 55.9611V53.324L42.7082 53.0341C47.9698 50.2133 52.2713 45.8882 55.0634 40.6113C57.7852 35.5933 59.3962 30.0487 59.7872 24.3535C57.5824 25.5929 55.1859 26.4549 52.6967 26.9037C46.8469 28.1117 40.895 28.7586 34.9222 28.8357V31.6758H32.8164V28.8744H32.0049H30.2564V32.4872C30.8165 32.4032 31.3809 32.3516 31.947 32.3327H32.0146C36.3417 32.3332 40.5294 33.8626 43.8385 36.6507C46.0211 38.4176 47.9689 40.4563 49.6345 42.7172C50.2522 41.4013 50.5816 39.9686 50.6005 38.5151V38.3992H52.7064V38.5151C52.7064 42.7269 50.5136 46.6585 46.5336 49.6048C42.4165 52.5027 37.5033 54.0549 32.4686 54.0485H31.6089C26.5774 54.0536 21.6676 52.5013 17.5535 49.6048C13.5735 46.7068 11.3807 42.7269 11.3807 38.5151V38.3992H13.4866V38.5151C13.4995 39.9849 13.829 41.4346 14.4526 42.7655C16.2204 40.592 21.2146 34.6607 28.1989 32.8543V28.7778C22.5211 28.671 16.8653 28.0404 11.3034 26.8941C8.81855 26.4407 6.4259 25.579 4.22262 24.3438C4.6091 30.0399 6.22037 35.5854 8.94638 40.6017C11.7407 45.886 16.0497 50.2152 21.3209 53.0341L21.8908 53.324L21.8522 55.9611ZM32.0049 52.1744C24.9434 52.1744 18.5388 49.3344 15.293 44.7651L15.2351 44.6879L15.5249 44.3401C17.2444 42.2246 21.7942 36.6121 28.2375 34.767H28.3921V38.8629H30.0149V34.4192H30.1115C30.7517 34.3278 31.397 34.2762 32.0436 34.2647C35.9295 34.2643 39.6916 35.6323 42.6696 38.1287C44.8326 39.9144 46.7549 41.973 48.3884 44.2532L48.7265 44.7072L48.6782 44.7748C45.471 49.3344 39.0664 52.1744 32.0049 52.1744ZM15.5249 44.6975C18.7417 49.1701 25.04 51.9329 31.947 51.9329C38.8539 51.9329 45.2005 49.1605 48.4173 44.6879L48.1855 44.3787C46.5891 42.1104 44.7022 40.0611 42.573 38.2833C39.6297 35.7922 35.8996 34.4233 32.0436 34.4192C31.455 34.4287 30.8676 34.4771 30.2854 34.5641V39.085H28.1506V35.0375C21.8619 36.8922 17.3989 42.4081 15.7181 44.485L15.5249 44.6975ZM33.0579 26.9617H32.0049H30.1309H30.0149V17.5045C30.0149 16.8959 30.0149 16.268 30.0826 15.6401V15.5339H33.1158V15.6594C33.1158 16.2294 33.0579 16.8573 33.0579 17.5142V26.9617ZM30.2564 26.6912H32.8164V17.5045C32.8164 16.8863 32.8164 16.3067 32.8647 15.7657H30.3144C30.3144 16.355 30.2564 16.9442 30.2564 17.5045V26.6912ZM34.6807 26.9134V17.5045C34.6807 16.838 34.6807 16.2197 34.7484 15.6594V15.5435H34.845C40.6868 15.615 46.5088 16.2393 52.2331 17.4079C58.0291 18.7217 60.077 20.3059 60.077 21.2719C60.077 22.2379 58.0291 23.7932 52.2331 25.1359H52.0882C46.4101 26.2784 40.6366 26.88 34.845 26.9327L34.6807 26.9134ZM34.9802 15.7657C34.9802 16.297 34.9222 16.8669 34.9222 17.4852V26.6912C40.7383 26.6243 46.5348 26.0032 52.2331 24.8365H52.2813C58.2996 23.4744 59.8838 21.9385 59.8838 21.2526C59.8838 20.5667 58.2996 19.0115 52.2331 17.6494C46.5539 16.4844 40.7771 15.8601 34.9802 15.785V15.7657ZM28.3921 26.9134H28.2665C22.7057 26.807 17.1665 26.1894 11.7188 25.0683C5.92279 23.7642 3.87486 22.1703 3.87486 21.2043C3.87486 20.2383 5.92279 18.683 11.7188 17.3403H11.8637C17.2713 16.2391 22.7682 15.6344 28.2858 15.5339H28.421V15.6594C28.421 16.2487 28.3631 16.8573 28.3631 17.4659L28.3921 26.9134ZM11.7188 17.6591C5.70061 19.0211 4.11636 20.5571 4.11636 21.2429C4.11636 21.9288 5.71027 23.4648 11.7671 24.8365C17.1726 25.9537 22.6704 26.5649 28.1892 26.6622V17.5045C28.1892 16.9346 28.1892 16.3646 28.2375 15.814C22.7189 15.9226 17.2218 16.5369 11.8154 17.6494L11.7188 17.6591Z" fill="black"/>
</svg>
