<svg width="64" height="64" viewBox="0 0 64 64" fill="none" xmlns="http://www.w3.org/2000/svg">
<path d="M31.6769 2.3186C25.8074 2.3186 20.0696 4.05912 15.1893 7.32006C10.309 10.581 6.5052 15.2159 4.25903 20.6386C2.01286 26.0614 1.42516 32.0284 2.57025 37.7852C3.71534 43.5419 6.54178 48.8298 10.6922 52.9802C14.8426 57.1306 20.1305 59.957 25.8872 61.1021C31.644 62.2472 37.611 61.6595 43.0337 59.4134C48.4565 57.1672 53.0914 53.3634 56.3523 48.4831C59.6133 43.6027 61.3538 37.865 61.3538 31.9955C61.3538 28.0983 60.5862 24.2392 59.0948 20.6386C57.6034 17.0381 55.4174 13.7665 52.6616 11.0108C49.9059 8.25501 46.6343 6.06902 43.0337 4.57762C39.4332 3.08622 35.5741 2.3186 31.6769 2.3186ZM31.6769 59.697C26.1984 59.6952 20.8436 58.0689 16.2893 55.0239C11.735 51.979 8.18589 47.6519 6.09065 42.59C3.99541 37.528 3.44815 31.9585 4.51806 26.5855C5.58798 21.2125 8.22702 16.2775 12.1015 12.4043C15.976 8.53108 20.912 5.89369 26.2853 4.82557C31.6586 3.75745 37.228 4.30658 42.2892 6.40351C47.3505 8.50045 51.6763 12.051 54.7198 16.6063C57.7632 21.1616 59.3877 26.517 59.3877 31.9955C59.3901 35.6352 58.675 39.2397 57.2833 42.6028C55.8916 45.966 53.8505 49.0217 51.2768 51.5954C48.7031 54.1691 45.6474 56.2102 42.2842 57.6019C38.9211 58.9936 35.3166 59.7087 31.6769 59.7063V59.697Z" fill="black"/>
<path d="M31.6769 61.7929C23.8664 61.6551 16.4224 58.4556 10.9476 52.8834C5.47279 47.3111 2.40515 39.8118 2.40515 32.0001C2.40515 24.1883 5.47279 16.689 10.9476 11.1168C16.4224 5.54454 23.8664 2.34508 31.6769 2.20727C35.6336 2.13746 39.5646 2.85648 43.2403 4.32237C46.9161 5.78825 50.2631 7.97163 53.0859 10.7451C55.9087 13.5185 58.1508 16.8264 59.6813 20.4758C61.2118 24.1251 62 28.0428 62 32.0001C62 35.9574 61.2118 39.875 59.6813 43.5244C58.1508 47.1737 55.9087 50.4817 53.0859 53.2551C50.2631 56.0285 46.9161 58.2119 43.2403 59.6778C39.5646 61.1437 35.6336 61.8627 31.6769 61.7929ZM31.6769 2.43912C25.829 2.43912 20.1124 4.17335 15.2502 7.42247C10.388 10.6716 6.59848 15.2897 4.361 20.6926C2.12352 26.0955 1.53857 32.0407 2.68011 37.7761C3.82166 43.5115 6.63843 48.7796 10.7742 52.914C14.9099 57.0485 20.1789 59.8636 25.9147 61.0033C31.6504 62.1431 37.5954 61.5563 42.9976 59.3171C48.3999 57.0779 53.0167 53.287 56.2643 48.4237C59.5119 43.5605 61.2444 37.8434 61.2425 31.9954C61.2327 24.158 58.1143 16.6446 52.5716 11.1035C47.0288 5.56252 39.5144 2.44649 31.6769 2.43912ZM31.6769 59.8175C26.1742 59.8175 20.7951 58.1858 16.2198 55.1287C11.6445 52.0715 8.07847 47.7263 5.97269 42.6425C3.8669 37.5587 3.31593 31.9646 4.38945 26.5676C5.46297 21.1707 8.11277 16.2133 12.0038 12.3223C15.8947 8.43128 20.8522 5.78148 26.2491 4.70796C31.6461 3.63444 37.2402 4.18541 42.324 6.2912C47.4078 8.39698 51.753 11.963 54.8101 16.5383C57.8673 21.1136 59.499 26.4928 59.499 31.9954C59.499 39.3743 56.5678 46.451 51.3501 51.6686C46.1325 56.8863 39.0558 59.8175 31.6769 59.8175ZM31.6769 4.41449C26.2197 4.41449 20.8851 6.03287 16.3477 9.06493C11.8103 12.097 8.27397 16.4065 6.186 21.4485C4.09804 26.4905 3.5522 32.0385 4.61753 37.3907C5.68285 42.7429 8.31149 47.659 12.171 51.5172C16.0305 55.3754 20.9474 58.0024 26.3 59.0659C31.6526 60.1295 37.2004 59.5818 42.2417 57.4921C47.283 55.4024 51.5913 51.8647 54.6219 47.3263C57.6524 42.7879 59.269 37.4527 59.2672 31.9954C59.2573 24.6819 56.3471 17.6709 51.1748 12.5003C46.0025 7.32976 38.9905 4.42185 31.6769 4.41449Z" fill="black"/>
<path d="M45.5318 12.5385C45.5313 11.4833 45.1414 10.4653 44.4368 9.67977C43.7323 8.8942 42.7626 8.39626 41.7137 8.28137C40.6647 8.16648 39.6102 8.44272 38.7523 9.05715C37.8944 9.67159 37.2935 10.581 37.0646 11.6111C36.8976 12.3623 36.7678 13.1228 36.6287 13.8832C35.019 13.4379 33.3557 13.2164 31.6856 13.2248V8.25391H29.7103V20.1247C29.7137 21.1959 29.365 22.2386 28.7179 23.0923C28.4306 23.4786 28.0867 23.8194 27.6978 24.1032C27.0838 24.5761 26.594 25.1914 26.2709 25.8958C25.9477 26.6003 25.8009 27.3728 25.843 28.1467L26.7704 50.831C26.7805 51.0837 26.7389 51.3358 26.648 51.5719C26.557 51.8079 26.4188 52.0229 26.2418 52.2035C25.8786 52.5548 25.3931 52.7512 24.8878 52.7512C24.3825 52.7512 23.897 52.5548 23.5338 52.2035C23.3567 52.0229 23.2185 51.8079 23.1276 51.5719C23.0367 51.3358 22.995 51.0837 23.0051 50.831L23.6821 28.1745C23.7227 27.4008 23.5751 26.6288 23.2521 25.9246C22.9291 25.2204 22.4402 24.605 21.8273 24.131C21.4413 23.847 21.1005 23.5062 20.8165 23.1202C20.1731 22.2645 19.8248 21.2231 19.8242 20.1525V8.25391H17.8302V19.3271C16.1638 21.137 14.8705 23.2576 14.024 25.5676C13.1775 27.8776 12.7946 30.3318 12.8971 32.7898C12.9996 35.2479 13.5855 37.6617 14.6213 39.8932C15.6571 42.1247 17.1226 44.1303 18.9338 45.7952C19.6122 46.4179 20.3344 46.9913 21.0947 47.5109L20.9927 50.766C20.9619 51.7892 21.3389 52.7828 22.0407 53.528C22.7425 54.2733 23.7115 54.7092 24.7348 54.74C25.758 54.7707 26.7515 54.3937 27.4967 53.692C28.242 52.9902 28.6779 52.0211 28.7087 50.9979V50.5527C31.7932 51.0627 34.957 50.7753 37.8992 49.7181L37.8343 50.6455C37.8004 51.641 38.1528 52.6111 38.8179 53.3527C39.4829 54.0943 40.409 54.5499 41.4023 54.6242C42.3957 54.6985 43.3792 54.3857 44.1472 53.7512C44.9151 53.1168 45.408 52.21 45.5225 51.2205C45.5225 51.1185 45.5225 51.0164 45.5225 50.9051V44.673C48.7016 41.2183 50.4662 36.6949 50.4662 32C50.4662 27.3052 48.7016 22.7818 45.5225 19.3271L45.5318 12.5385ZM21.1782 45.1089C17.7883 42.4096 15.5766 38.5015 15.0077 34.2058C14.4387 29.91 15.5568 25.5609 18.127 22.0722C18.5402 23.5233 19.4243 24.7958 20.6403 25.6891C20.9995 25.9688 21.2846 26.3323 21.4705 26.7479C21.6564 27.1635 21.7376 27.6183 21.7068 28.0725L21.1782 45.1089ZM38.0569 47.5387C35.0739 48.7867 31.7848 49.1098 28.6159 48.4661L27.7998 28.0632C27.7706 27.6105 27.8525 27.1576 28.0383 26.7437C28.2242 26.3299 28.5085 25.9679 28.8663 25.6891C29.4113 25.2909 29.8928 24.8125 30.2945 24.2701C31.194 23.072 31.679 21.6136 31.6764 20.1154V15.1909C33.2453 15.1825 34.8071 15.4012 36.3134 15.8401C35.8776 18.7474 35.6545 21.6827 35.6456 24.6226V34.9631C35.6456 35.2263 35.7502 35.4787 35.9363 35.6648C36.1224 35.8509 36.3748 35.9554 36.638 35.9554H38.9101L38.0569 47.5387ZM43.5471 50.8959C43.5471 51.3878 43.3517 51.8596 43.0039 52.2074C42.656 52.5553 42.1842 52.7507 41.6923 52.7507C41.2004 52.7507 40.7286 52.5553 40.3808 52.2074C40.0329 51.8596 39.8375 51.3878 39.8375 50.8959V50.7846L40.9875 35.0187C40.9989 34.8878 40.9837 34.756 40.9427 34.6311C40.9018 34.5063 40.8361 34.391 40.7494 34.2922C40.6628 34.1934 40.557 34.1132 40.4386 34.0564C40.3201 33.9995 40.1913 33.9673 40.0601 33.9615H37.6117V24.6318C37.6088 20.3994 38.069 16.1793 38.9843 12.047C39.0985 11.4855 39.4181 10.9869 39.8807 10.6487C40.3432 10.3105 40.9153 10.1571 41.485 10.2186C42.0546 10.2801 42.5808 10.552 42.9605 10.9811C43.3402 11.4102 43.5461 11.9656 43.5378 12.5385L43.5471 50.8959ZM48.4994 31.9954C48.4993 35.3949 47.4642 38.7138 45.5318 41.5106V22.4895C47.4651 25.2824 48.5004 28.5986 48.4994 31.9954Z" fill="black"/>
<path d="M41.674 54.8928H41.368C40.8447 54.8575 40.3335 54.7193 39.8637 54.4862C39.3939 54.253 38.9747 53.9294 38.6301 53.534C38.2855 53.1386 38.0223 52.6791 37.8556 52.1819C37.6888 51.6846 37.6218 51.1593 37.6584 50.6361L37.714 49.9034C34.8425 50.8891 31.7745 51.1628 28.7739 50.701V51.007C28.7426 52.0396 28.3109 53.0195 27.5701 53.7395C26.8294 54.4594 25.8376 54.8631 24.8046 54.865H24.684C24.1623 54.8506 23.6486 54.7333 23.1724 54.5197C22.6962 54.3061 22.2669 54.0004 21.9093 53.6204C21.5516 53.2403 21.2726 52.7933 21.0883 52.305C20.904 51.8167 20.818 51.2968 20.8353 50.7752L20.928 47.5849C20.1818 47.0723 19.4721 46.5083 18.8043 45.897C15.1351 42.5158 12.955 37.8186 12.7412 32.8337C12.5274 27.8487 14.2974 22.9821 17.6636 19.2991V8.14249H19.8708V20.1245C19.8678 21.1654 20.1922 22.1809 20.7982 23.0273C21.0787 23.4021 21.4131 23.7334 21.7905 24.0103C22.4408 24.4865 22.9637 25.1155 23.3131 25.8418C23.6624 26.568 23.8275 27.3692 23.7937 28.1744L23.0889 50.8494C23.0788 51.0864 23.1172 51.3229 23.2017 51.5446C23.2862 51.7663 23.4151 51.9683 23.5804 52.1385C23.9244 52.4619 24.3788 52.642 24.851 52.642C25.3231 52.642 25.7775 52.4619 26.1215 52.1385C26.2868 51.9683 26.4157 51.7663 26.5002 51.5446C26.5847 51.3229 26.6231 51.0864 26.613 50.8494L25.7042 28.1744C25.6647 27.3796 25.8188 26.5871 26.1531 25.8651C26.4875 25.143 26.9922 24.5129 27.6239 24.0289C28.0013 23.7519 28.3357 23.4207 28.6162 23.0458C29.2387 22.2051 29.5795 21.1891 29.59 20.1431V8.14249H31.7972V13.1041C33.3971 13.1139 34.9894 13.3257 36.5362 13.7347V13.642C36.6568 12.965 36.7866 12.2694 36.935 11.5831C37.1499 10.6019 37.6958 9.72444 38.481 9.09796C39.2662 8.47148 40.243 8.13412 41.2474 8.14249C42.4133 8.14249 43.5314 8.60562 44.3558 9.43001C45.1802 10.2544 45.6433 11.3725 45.6433 12.5384V19.2806C48.8289 22.7505 50.5965 27.2895 50.5965 31.9999C50.5965 36.7104 48.8289 41.2493 45.6433 44.7192V50.8957C45.6433 51.007 45.6433 51.1183 45.6433 51.2203C45.5797 52.225 45.1358 53.1677 44.4019 53.8568C43.668 54.5459 42.6993 54.9296 41.6926 54.9299L41.674 54.8928ZM38.0572 49.551L37.9737 50.6361C37.9366 51.1232 37.9957 51.6129 38.1478 52.0772C38.2999 52.5415 38.542 52.9713 38.8602 53.342C39.1784 53.7127 39.5665 54.0172 40.0024 54.2379C40.4382 54.4587 40.9133 54.5914 41.4005 54.6285C41.8876 54.6657 42.3773 54.6065 42.8416 54.4544C43.3059 54.3023 43.7357 54.0602 44.1064 53.742C44.4771 53.4238 44.7816 53.0357 45.0023 52.5999C45.223 52.164 45.3558 51.6889 45.3929 51.2018C45.3929 51.0998 45.3929 50.9978 45.3929 50.8957V44.6265C48.5538 41.1922 50.3084 36.6952 50.3084 32.0277C50.3084 27.3602 48.5538 22.8632 45.3929 19.429V12.5384C45.3905 11.4348 44.951 10.377 44.1706 9.59666C43.3902 8.81628 42.3325 8.37679 41.2289 8.37434C40.2794 8.37136 39.3576 8.69368 38.6168 9.28764C37.876 9.8816 37.361 10.7114 37.1576 11.6388C37.0092 12.3158 36.8886 13.0113 36.7681 13.6791L36.7032 14.0315H36.5826C35.0136 13.5844 33.3915 13.3504 31.7601 13.3359H31.5654V8.37434H29.8218V20.1245C29.8105 21.2236 29.4464 22.2899 28.7831 23.1664C28.492 23.561 28.1417 23.9083 27.7445 24.1958C27.1348 24.6515 26.6467 25.2503 26.3232 25.9393C25.9997 26.6283 25.8508 27.3864 25.8896 28.1466L26.817 50.8215C26.8268 51.0892 26.7826 51.356 26.687 51.6062C26.5914 51.8563 26.4464 52.0847 26.2606 52.2776C25.9807 52.5694 25.6187 52.7692 25.2226 52.8505C24.8265 52.9318 24.4151 52.8907 24.0428 52.7328C23.6706 52.5748 23.3552 52.3075 23.1385 51.9661C22.9217 51.6248 22.8139 51.2256 22.8292 50.8215L23.5619 28.1744C23.5992 27.4157 23.4495 26.6596 23.1261 25.9723C22.8027 25.285 22.3154 24.6877 21.7071 24.2329C21.3098 23.9454 20.9595 23.5981 20.6684 23.2035C20.0117 22.3247 19.6542 21.2586 19.6482 20.1616V8.37434H17.9418V19.3733C16.1193 21.3375 14.7439 23.6732 13.9104 26.2197C13.0769 28.7662 12.8051 31.4631 13.1135 34.1248C13.422 36.7864 14.3035 39.3496 15.6973 41.638C17.0912 43.9264 18.9643 45.8856 21.1877 47.3809H21.2434L21.1413 50.701C21.1228 51.1928 21.2022 51.6833 21.3751 52.1441C21.548 52.6049 21.8108 53.0266 22.1483 53.3848C22.4858 53.743 22.8912 54.0305 23.3408 54.2305C23.7905 54.4305 24.2755 54.539 24.7675 54.5497C25.2593 54.5683 25.7498 54.4888 26.2106 54.3159C26.6714 54.1431 27.0931 53.8802 27.4513 53.5427C27.8095 53.2053 28.097 52.7999 28.297 52.3502C28.497 51.9005 28.6055 51.4156 28.6162 50.9236V50.432H28.7553C31.8202 50.9387 34.9637 50.6578 37.8902 49.6159L38.0572 49.551ZM41.7111 52.8804C41.1839 52.8779 40.6791 52.6668 40.3072 52.2931C39.9353 51.9194 39.7265 51.4137 39.7265 50.8865C39.7215 50.8464 39.7215 50.8059 39.7265 50.7659L40.8765 35.0001C40.8861 34.8859 40.8721 34.7711 40.8354 34.6626C40.7987 34.5541 40.7401 34.4543 40.6632 34.3694C40.5896 34.2815 40.4991 34.2092 40.3972 34.1566C40.2953 34.1041 40.1839 34.0724 40.0696 34.0634H37.5007V24.6317C37.5008 20.3897 37.9641 16.1604 38.8826 12.019C39.0099 11.4354 39.3485 10.9195 39.8333 10.5706C40.3181 10.2216 40.9148 10.0642 41.5086 10.1287C42.1024 10.1931 42.6515 10.4748 43.0501 10.9197C43.4487 11.3645 43.6688 11.9411 43.668 12.5384V50.8957C43.6655 51.423 43.4543 51.9277 43.0807 52.2997C42.707 52.6716 42.2013 52.8804 41.674 52.8804H41.7111ZM37.7326 33.8594H40.0511C40.3432 33.8831 40.6141 34.021 40.8051 34.2433C40.9961 34.4655 41.0917 34.7541 41.0712 35.0464L39.912 50.7845C39.9069 50.8183 39.9069 50.8527 39.912 50.8865C39.912 51.3522 40.0963 51.799 40.4248 52.1292C40.7532 52.4594 41.199 52.6461 41.6648 52.6485C41.8957 52.6498 42.1247 52.6053 42.3384 52.5178C42.5521 52.4302 42.7464 52.3013 42.9102 52.1384C43.0739 51.9756 43.2039 51.7819 43.2925 51.5687C43.3812 51.3554 43.4268 51.1267 43.4268 50.8957V12.5384C43.4308 11.9955 43.2328 11.4706 42.8714 11.0655C42.51 10.6604 42.011 10.4041 41.4712 10.3463C40.9314 10.2885 40.3895 10.4334 39.9505 10.7528C39.5115 11.0722 39.2069 11.5433 39.0959 12.0747C38.1851 16.1983 37.7249 20.4087 37.7233 24.6317L37.7326 33.8594ZM31.7787 48.9296C30.7092 48.9182 29.6436 48.8002 28.5977 48.5772H28.5049L27.6888 28.0816C27.6555 27.611 27.7378 27.1393 27.9285 26.7077C28.1193 26.2761 28.4127 25.8977 28.7831 25.6055C29.6437 24.9736 30.3439 24.1484 30.8271 23.1964C31.3104 22.2444 31.5632 21.1922 31.5654 20.1245V15.0795H31.7416C33.3108 15.0753 34.8725 15.297 36.3786 15.7379H36.4806V15.8399C36.045 18.7411 35.8219 21.6702 35.8129 24.6039V34.963C35.8129 35.2089 35.9106 35.4448 36.0845 35.6187C36.2584 35.7927 36.4943 35.8904 36.7403 35.8904H39.1422L38.1685 47.6498H38.1035C36.1035 48.4997 33.9518 48.935 31.7787 48.9296ZM28.7275 48.4103C31.8243 49.0217 35.0329 48.6989 37.9459 47.4829L38.7805 36.1037H36.629C36.3338 36.1037 36.0508 35.9864 35.842 35.7777C35.6333 35.569 35.5161 35.2859 35.5161 34.9908V24.6317C35.5356 21.7193 35.765 18.8121 36.2024 15.9327C34.7784 15.5272 33.3056 15.3181 31.825 15.3113V20.1245C31.8251 21.2266 31.5667 22.3133 31.0706 23.2974C30.5745 24.2815 29.8546 25.1355 28.9686 25.791C28.6248 26.0587 28.352 26.4067 28.1741 26.8045C27.9963 27.2023 27.9188 27.6376 27.9485 28.0724L28.7275 48.4103ZM21.3083 45.3499L21.1228 45.2015C17.7021 42.491 15.4694 38.5567 14.8965 34.2301C14.3237 29.9035 15.4556 25.5237 18.0531 22.0164L18.1922 21.8217L18.2571 22.0535C18.6664 23.4791 19.5373 24.7284 20.7333 25.6055C21.1031 25.9014 21.397 26.2812 21.5906 26.7135C21.7841 27.1458 21.8718 27.618 21.8462 28.0909L21.3083 45.3499ZM18.0902 22.3317C15.6201 25.7597 14.5527 30.0017 15.106 34.1905C15.6593 38.3793 17.7917 42.1986 21.0672 44.8676L21.5958 28.0631C21.6243 27.6262 21.5454 27.189 21.366 26.7897C21.1865 26.3904 20.912 26.0411 20.5664 25.7724C19.3995 24.9147 18.533 23.7106 18.0902 22.3317ZM45.4115 41.8814V22.1184L45.6248 22.4245C47.5773 25.2334 48.6198 28.5744 48.611 31.9953C48.6217 35.4193 47.5791 38.7638 45.6248 41.5753L45.4115 41.8814ZM45.6433 22.8696V41.158C47.4565 38.4565 48.425 35.2767 48.4255 32.0231C48.4304 28.763 47.4616 25.5756 45.6433 22.8696Z" fill="black"/>
<path d="M21.7903 8.25415H23.7657V19.1419H21.7903V8.25415Z" fill="black"/>
<path d="M23.8867 19.2529H21.6702V8.14258H23.8867V19.2529ZM21.902 19.021H23.6548V8.37443H21.902V19.021Z" fill="black"/>
<path d="M25.7415 8.25415H27.7261V19.1419H25.7415V8.25415Z" fill="black"/>
<path d="M27.8559 19.2529H25.6301V8.14258H27.8559V19.2529ZM25.8805 19.021H27.624V8.37443H25.862L25.8805 19.021Z" fill="black"/>
</svg>
