<svg width="62" height="60" viewBox="0 0 62 60" fill="none" xmlns="http://www.w3.org/2000/svg">
<g clip-path="url(#clip0_281_2167)">
<path d="M42.5081 43.847C42.2002 43.8466 41.9047 43.7257 41.6848 43.5102L28.7452 30.8326C28.634 30.7246 28.5459 30.5951 28.4864 30.4519C28.4269 30.3087 28.3971 30.1549 28.399 29.9999V19.8204C28.399 19.5102 28.5222 19.2128 28.7416 18.9934C28.9609 18.7741 29.2584 18.6509 29.5685 18.6509C29.8787 18.6509 30.1762 18.7741 30.3955 18.9934C30.6148 19.2128 30.7381 19.5102 30.7381 19.8204V29.504L43.3221 41.8448C43.431 41.9535 43.5174 42.0825 43.5764 42.2246C43.6353 42.3667 43.6657 42.519 43.6657 42.6728C43.6657 42.8267 43.6353 42.979 43.5764 43.1211C43.5174 43.2632 43.431 43.3922 43.3221 43.5009C43.216 43.6094 43.0894 43.6959 42.9497 43.7553C42.81 43.8147 42.6599 43.8459 42.5081 43.847Z" fill="black"/>
<path d="M31.0001 59.5C14.4116 59.5 0.910645 46.2704 0.910645 30C0.910645 13.7296 14.4116 0.5 31.0001 0.5C47.5886 0.5 61.0895 13.7296 61.0895 30C61.0895 46.2704 47.5979 59.5 31.0001 59.5ZM31.0001 2.83904C15.7027 2.83904 3.24969 15.0021 3.24969 29.9719C3.24969 44.9418 15.7027 57.1048 31.0001 57.1048C46.2974 57.1048 58.7505 44.9418 58.7505 29.9719C58.7505 15.0021 46.3068 2.83904 31.0001 2.83904Z" fill="black"/>
</g>
<defs>
<clipPath id="clip0_281_2167">
<rect width="60.1789" height="59" fill="white" transform="translate(0.910645 0.5)"/>
</clipPath>
</defs>
</svg>
