<svg width="65" height="64" viewBox="0 0 65 64" fill="none" xmlns="http://www.w3.org/2000/svg">
<path d="M54.1177 23.0247C54.0538 22.4288 53.9792 21.9512 53.9177 21.6108L58.943 14.073C59.2589 13.599 59.2389 12.9767 58.8932 12.524C58.5474 12.0714 57.9523 11.8883 57.4119 12.0685L50.4235 14.3979C50.0541 13.8471 49.5064 13.1206 48.7764 12.3906C47.2977 10.9119 44.9786 9.33337 41.8336 9.33337C38.5734 9.33337 36.1606 10.2459 34.4378 11.7439C32.7328 13.2266 31.8334 15.1699 31.3734 17.01C30.9139 18.8477 30.8731 20.6563 30.9394 21.9833C30.9588 22.3703 30.9875 22.7205 31.0186 23.0236C27.6715 23.7354 24.1693 22.645 20.7384 20.609C16.9552 18.3638 13.4872 15.1014 10.7764 12.3906C10.4004 12.0146 9.83699 11.8979 9.34263 12.0937C8.84828 12.2895 8.5175 12.7603 8.50089 13.2917C8.16116 24.1632 10.4025 37.3221 20.53 43.9948C16.2703 46.2992 12.0939 47.3738 7.00153 48.0103C6.41851 48.0832 5.95191 48.5291 5.85272 49.1083C5.75352 49.6874 6.0451 50.2632 6.57062 50.526C20.3272 57.4042 38.1533 56.9071 48.2336 43.4667C52.4122 37.8952 53.8124 32.3092 54.1623 28.1108C54.337 26.0139 54.2502 24.2616 54.1177 23.0247Z" fill="white"/>
</svg>
