<svg width="65" height="64" viewBox="0 0 65 64" fill="none" xmlns="http://www.w3.org/2000/svg">
<path d="M59.3312 18.5063C59.0125 17.319 58.3874 16.2363 57.5187 15.3665C56.65 14.4967 55.5681 13.8703 54.3812 13.55C50.0125 12.375 32.5 12.375 32.5 12.375C32.5 12.375 14.9875 12.375 10.6187 13.5437C9.43138 13.863 8.3489 14.489 7.48004 15.359C6.61117 16.229 5.9865 17.3122 5.66875 18.5C4.5 22.875 4.5 32 4.5 32C4.5 32 4.5 41.125 5.66875 45.4938C6.3125 47.9062 8.2125 49.8063 10.6187 50.45C14.9875 51.625 32.5 51.625 32.5 51.625C32.5 51.625 50.0125 51.625 54.3812 50.45C56.7937 49.8063 58.6875 47.9062 59.3312 45.4938C60.5 41.125 60.5 32 60.5 32C60.5 32 60.5 22.875 59.3312 18.5063ZM26.9375 40.375V23.625L41.4375 31.9375L26.9375 40.375Z" fill="white"/>
</svg>
